<svg width="39" height="39" viewBox="0 0 39 39" fill="none" xmlns="http://www.w3.org/2000/svg"><path fill-rule="evenodd" clip-rule="evenodd" d="M2.146 2.255A7.648 7.648 0 017.583 0c2.088 0 4.038.84 5.438 2.255a7.393 7.393 0 012.146 5.2v4.59h8.666v-4.59c0-1.918.753-3.792 2.146-5.2A7.648 7.648 0 0131.417 0c2.088 0 4.037.84 5.437 2.255A7.393 7.393 0 0139 7.455c0 1.92-.752 3.794-2.146 5.202a7.648 7.648 0 01-5.437 2.255h-4.334v9.176h4.334c2.088 0 4.037.84 5.437 2.255A7.393 7.393 0 0139 31.544c0 1.92-.752 3.793-2.146 5.201A7.648 7.648 0 0131.417 39a7.648 7.648 0 01-5.438-2.255 7.393 7.393 0 01-2.146-5.2v-4.59h-8.666v4.59a7.394 7.394 0 01-2.146 5.2A7.648 7.648 0 017.583 39a7.647 7.647 0 01-5.437-2.255A7.393 7.393 0 010 31.545c0-1.92.752-3.794 2.146-5.202a7.648 7.648 0 015.437-2.255h4.334v-9.176H7.583a7.648 7.648 0 01-5.437-2.255A7.393 7.393 0 010 7.456c0-1.92.752-3.793 2.146-5.201zm9.77 9.79v-4.59a4.717 4.717 0 00-1.344-3.314 4.207 4.207 0 00-2.989-1.273A4.207 4.207 0 004.594 4.14 4.717 4.717 0 003.25 7.456c0 1.275.503 2.465 1.344 3.315a4.207 4.207 0 002.99 1.273h4.333zm3.25 2.867v9.176h8.667v-9.176h-8.666zm-3.25 12.044H7.584a4.207 4.207 0 00-2.989 1.273 4.717 4.717 0 00-1.344 3.315c0 1.275.503 2.465 1.344 3.315a4.207 4.207 0 002.99 1.273 4.207 4.207 0 002.988-1.273 4.717 4.717 0 001.345-3.315v-4.588zm15.167 0v4.588c0 1.275.503 2.465 1.345 3.315a4.207 4.207 0 002.989 1.273 4.206 4.206 0 002.989-1.273 4.717 4.717 0 001.344-3.315 4.717 4.717 0 00-1.344-3.315 4.207 4.207 0 00-2.99-1.273h-4.333zm0-14.912h4.334a4.207 4.207 0 002.989-1.273 4.717 4.717 0 001.344-3.315 4.717 4.717 0 00-1.344-3.315 4.207 4.207 0 00-2.99-1.273 4.207 4.207 0 00-2.988 1.273 4.717 4.717 0 00-1.345 3.315v4.588z" fill="#fff"/></svg>