<svg width="19" height="20" viewBox="0 0 19 20" fill="none" xmlns="http://www.w3.org/2000/svg"><path d="M9 .003C7.393.02 3.94.273 2.008 1.964.57 3.323.069 5.332.01 7.815c-.049 2.475-.107 7.123 4.588 8.389v1.927s-.03.771.505.93c.658.198 1.032-.395 1.658-1.032l1.167-1.26c3.212.255 5.673-.332 5.956-.42.652-.198 4.323-.646 4.923-5.294.616-4.8-.3-7.825-1.951-9.193h-.01c-.5-.439-2.503-1.832-6.98-1.847 0 0-.332-.022-.866-.013zm.055 1.35c.456-.004.733.015.733.015 3.79.01 5.598 1.098 6.025 1.464 1.39 1.138 2.108 3.865 1.583 7.873-.499 3.886-3.476 4.132-4.028 4.3-.234.071-2.401.58-5.131.413 0 0-2.033 2.341-2.67 2.944-.1.106-.217.137-.292.121-.108-.025-.14-.152-.134-.326l.02-3.2c-3.983-1.05-3.748-5.014-3.706-7.085.05-2.07.456-3.765 1.669-4.912 1.632-1.408 4.565-1.598 5.93-1.608h.001zm.3 2.07a.259.259 0 00-.177.068.237.237 0 00-.074.168c0 .134.114.24.251.24a4.9 4.9 0 011.814.311 4.73 4.73 0 011.549.954c.909.842 1.352 1.974 1.369 3.454 0 .13.11.24.25.24v-.01c.066 0 .13-.025.177-.07a.233.233 0 00.074-.167 4.93 4.93 0 00-.348-2.043 5.118 5.118 0 00-1.164-1.747c-.99-.923-2.245-1.399-3.72-1.399zm-3.297.547a.815.815 0 00-.512.096h-.013c-.358.2-.68.453-.955.75-.228.251-.352.506-.384.751A.972.972 0 004.233 6l.016.01c.257.72.593 1.414 1.004 2.067A12.21 12.21 0 007.188 10.6l.023.031.035.026.023.025.026.021c.798.724 1.69 1.348 2.653 1.856 1.1.572 1.769.842 2.17.954v.006c.117.034.224.05.332.05.342-.024.665-.156.92-.376a3.66 3.66 0 00.775-.914v-.006c.192-.345.127-.672-.15-.892a11.56 11.56 0 00-1.793-1.228c-.426-.221-.86-.088-1.036.136l-.374.451c-.192.224-.541.193-.541.193l-.01.006c-2.604-.635-3.298-3.15-3.298-3.15s-.033-.342.208-.516l.47-.36c.224-.175.38-.588.14-.996a10.765 10.765 0 00-1.284-1.71.72.72 0 00-.42-.24v.002zm3.73.71c-.332 0-.332.478.003.478.413.006.821.09 1.2.247.38.157.722.383 1.01.667.261.276.463.599.591.95.13.352.183.724.158 1.096a.236.236 0 00.075.167c.046.044.11.069.176.069l.01.012c.066 0 .13-.025.176-.07a.236.236 0 00.075-.169c.022-.948-.287-1.744-.893-2.382-.61-.637-1.46-.995-2.545-1.066h-.036zm.411 1.286c-.342-.01-.355.479-.016.488.825.041 1.225.439 1.277 1.256a.232.232 0 00.074.165.255.255 0 00.174.069h.01a.262.262 0 00.177-.08.24.24 0 00.064-.175c-.059-1.066-.668-1.667-1.75-1.722h-.01z" fill="#000"/></svg>