<svg width="13" height="13" viewBox="0 0 13 13" fill="none" xmlns="http://www.w3.org/2000/svg">
<path fill-rule="evenodd" clip-rule="evenodd" d="M6.5 12.1875C8.00842 12.1875 9.45506 11.5883 10.5217 10.5217C11.5883 9.45506 12.1875 8.00842 12.1875 6.5C12.1875 4.99158 11.5883 3.54494 10.5217 2.47833C9.45506 1.41172 8.00842 0.8125 6.5 0.8125C4.99158 0.8125 3.54494 1.41172 2.47833 2.47833C1.41172 3.54494 0.8125 4.99158 0.8125 6.5C0.8125 8.00842 1.41172 9.45506 2.47833 10.5217C3.54494 11.5883 4.99158 12.1875 6.5 12.1875ZM6.5 13C8.22391 13 9.87721 12.3152 11.0962 11.0962C12.3152 9.87721 13 8.22391 13 6.5C13 4.77609 12.3152 3.12279 11.0962 1.90381C9.87721 0.68482 8.22391 0 6.5 0C4.77609 0 3.12279 0.68482 1.90381 1.90381C0.68482 3.12279 0 4.77609 0 6.5C0 8.22391 0.68482 9.87721 1.90381 11.0962C3.12279 12.3152 4.77609 13 6.5 13Z" fill="#40B3E0"/>
<path fill-rule="evenodd" clip-rule="evenodd" d="M6.21237 9.22515C6.17454 9.18741 6.14452 9.14258 6.12404 9.09323C6.10356 9.04387 6.09302 8.99096 6.09302 8.93753C6.09302 8.88409 6.10356 8.83118 6.12404 8.78182C6.14452 8.73247 6.17454 8.68764 6.21237 8.6499L8.36306 6.50003L6.21237 4.35015C6.1746 4.31238 6.14464 4.26754 6.12419 4.21819C6.10375 4.16884 6.09323 4.11594 6.09323 4.06253C6.09323 4.00911 6.10375 3.95621 6.12419 3.90686C6.14464 3.85751 6.1746 3.81267 6.21237 3.7749C6.25014 3.73713 6.29498 3.70717 6.34433 3.68672C6.39368 3.66628 6.44658 3.65576 6.49999 3.65576C6.55341 3.65576 6.6063 3.66628 6.65566 3.68672C6.70501 3.70717 6.74985 3.73713 6.78762 3.7749L9.22512 6.2124C9.26295 6.25014 9.29297 6.29497 9.31345 6.34432C9.33393 6.39368 9.34447 6.44659 9.34447 6.50003C9.34447 6.55346 9.33393 6.60637 9.31345 6.65573C9.29297 6.70508 9.26295 6.74991 9.22512 6.78765L6.78762 9.22515C6.74988 9.26298 6.70505 9.293 6.6557 9.31348C6.60634 9.33396 6.55343 9.3445 6.49999 9.3445C6.44656 9.3445 6.39365 9.33396 6.34429 9.31348C6.29494 9.293 6.25011 9.26298 6.21237 9.22515Z" fill="#40B3E0"/>
<path fill-rule="evenodd" clip-rule="evenodd" d="M3.65625 6.5C3.65625 6.39226 3.69905 6.28892 3.77524 6.21274C3.85142 6.13655 3.95476 6.09375 4.0625 6.09375H8.125C8.23274 6.09375 8.33608 6.13655 8.41226 6.21274C8.48845 6.28892 8.53125 6.39226 8.53125 6.5C8.53125 6.60774 8.48845 6.71108 8.41226 6.78726C8.33608 6.86345 8.23274 6.90625 8.125 6.90625H4.0625C3.95476 6.90625 3.85142 6.86345 3.77524 6.78726C3.69905 6.71108 3.65625 6.60774 3.65625 6.5Z" fill="#40B3E0"/>
</svg>
