<svg width="45" height="45" viewBox="0 0 45 45" fill="none" xmlns="http://www.w3.org/2000/svg">
<path fill-rule="evenodd" clip-rule="evenodd" d="M45 22.5C45 28.4674 42.6295 34.1903 38.4099 38.4099C34.1903 42.6295 28.4674 45 22.5 45C16.5326 45 10.8097 42.6295 6.5901 38.4099C2.37053 34.1903 0 28.4674 0 22.5C0 16.5326 2.37053 10.8097 6.5901 6.5901C10.8097 2.37053 16.5326 0 22.5 0C28.4674 0 34.1903 2.37053 38.4099 6.5901C42.6295 10.8097 45 16.5326 45 22.5ZM21.5044 29.9419C21.2403 30.2059 21.092 30.5641 21.092 30.9375C21.092 31.3109 21.2403 31.6691 21.5044 31.9331C21.7684 32.1972 22.1266 32.3455 22.5 32.3455C22.8734 32.3455 23.2316 32.1972 23.4956 31.9331L31.9331 23.4956C32.0641 23.365 32.168 23.2098 32.2389 23.039C32.3098 22.8681 32.3463 22.685 32.3463 22.5C32.3463 22.315 32.3098 22.1319 32.2389 21.961C32.168 21.7902 32.0641 21.635 31.9331 21.5044L23.4956 13.0669C23.3649 12.9361 23.2097 12.8324 23.0388 12.7617C22.868 12.6909 22.6849 12.6545 22.5 12.6545C22.3151 12.6545 22.132 12.6909 21.9612 12.7617C21.7903 12.8324 21.6351 12.9361 21.5044 13.0669C21.3736 13.1976 21.2699 13.3528 21.1992 13.5237C21.1284 13.6945 21.092 13.8776 21.092 14.0625C21.092 14.2474 21.1284 14.4305 21.1992 14.6013C21.2699 14.7722 21.3736 14.9274 21.5044 15.0581L27.5428 21.0938H14.0625C13.6895 21.0938 13.3319 21.2419 13.0681 21.5056C12.8044 21.7694 12.6562 22.127 12.6562 22.5C12.6562 22.873 12.8044 23.2306 13.0681 23.4944C13.3319 23.7581 13.6895 23.9062 14.0625 23.9062H27.5428L21.5044 29.9419Z" fill="#40B3E0"/>
</svg>
