<svg width="411" height="411" viewBox="0 0 411 411" fill="none" xmlns="http://www.w3.org/2000/svg">
<mask id="mask0" mask-type="alpha" maskUnits="userSpaceOnUse" x="0" y="0" width="411" height="411">
<path fill-rule="evenodd" clip-rule="evenodd" d="M205.5 411C318.995 411 411 318.995 411 205.5C411 92.0055 318.995 0 205.5 0C92.0055 0 0 92.0055 0 205.5C0 318.995 92.0055 411 205.5 411ZM205.5 299C257.139 299 299 257.139 299 205.5C299 153.861 257.139 112 205.5 112C153.861 112 112 153.861 112 205.5C112 257.139 153.861 299 205.5 299Z" fill="#C4C4C4"/>
</mask>
<g mask="url(#mask0)">
<circle cx="5.47043" cy="108.482" r="6.21469" fill="#FF7BB2" fill-opacity="0.1"/>
<circle cx="5.47043" cy="125.996" r="6.21469" fill="#FF7BB2" fill-opacity="0.1"/>
<circle cx="5.47043" cy="143.51" r="6.21469" fill="#FF7BB2" fill-opacity="0.1"/>
<circle cx="5.47043" cy="161.024" r="6.21469" fill="#FF7BB2" fill-opacity="0.1"/>
<circle cx="5.47043" cy="178.538" r="6.21469" fill="#FF7BB2" fill-opacity="0.1"/>
<circle cx="5.47043" cy="196.052" r="6.21469" fill="#FF7BB2" fill-opacity="0.1"/>
<circle cx="5.43503" cy="322.482" r="6.21469" fill="#FF7BB2" fill-opacity="0.1"/>
<circle cx="5.43503" cy="339.996" r="6.21469" fill="#FF7BB2" fill-opacity="0.1"/>
<circle cx="5.43503" cy="357.51" r="6.21469" fill="#FF7BB2" fill-opacity="0.1"/>
<circle cx="5.43503" cy="375.024" r="6.21469" fill="#FF7BB2" fill-opacity="0.1"/>
<circle cx="5.43503" cy="392.538" r="6.21469" fill="#FF7BB2" fill-opacity="0.1"/>
<circle cx="5.43503" cy="410.052" r="6.21469" fill="#FF7BB2" fill-opacity="0.1"/>
<circle cx="24.2147" cy="108.215" r="6.21469" fill="#FF7BB2" fill-opacity="0.1"/>
<circle cx="80.1469" cy="108.215" r="6.21469" fill="#FF7BB2" fill-opacity="0.1"/>
<circle cx="42.8587" cy="108.215" r="6.21469" fill="#FF7BB2" fill-opacity="0.1"/>
<circle cx="98.791" cy="108.215" r="6.21469" fill="#FF7BB2" fill-opacity="0.1"/>
<circle cx="61.5028" cy="108.215" r="6.21469" fill="#FF7BB2" fill-opacity="0.1"/>
<circle cx="117.435" cy="108.215" r="6.21469" fill="#FF7BB2" fill-opacity="0.1"/>
<circle cx="24.2147" cy="125.729" r="6.21469" fill="#FF7BB2" fill-opacity="0.1"/>
<circle cx="80.1469" cy="125.729" r="6.21469" fill="#FF7BB2" fill-opacity="0.1"/>
<circle cx="42.8587" cy="125.729" r="6.21469" fill="#FF7BB2" fill-opacity="0.1"/>
<circle cx="98.791" cy="125.729" r="6.21469" fill="#FF7BB2" fill-opacity="0.1"/>
<circle cx="61.5028" cy="125.729" r="6.21469" fill="#FF7BB2" fill-opacity="0.1"/>
<circle cx="117.435" cy="125.729" r="6.21469" fill="#FF7BB2" fill-opacity="0.1"/>
<circle cx="24.2147" cy="143.243" r="6.21469" fill="#FF7BB2" fill-opacity="0.1"/>
<circle cx="80.1469" cy="143.243" r="6.21469" fill="#FF7BB2" fill-opacity="0.1"/>
<circle cx="42.8587" cy="143.243" r="6.21469" fill="#FF7BB2" fill-opacity="0.1"/>
<circle cx="98.791" cy="143.243" r="6.21469" fill="#FF7BB2" fill-opacity="0.1"/>
<circle cx="61.5028" cy="143.243" r="6.21469" fill="#FF7BB2" fill-opacity="0.1"/>
<circle cx="117.435" cy="143.243" r="6.21469" fill="#FF7BB2" fill-opacity="0.1"/>
<circle cx="24.2147" cy="160.757" r="6.21469" fill="#FF7BB2" fill-opacity="0.1"/>
<circle cx="80.1469" cy="160.757" r="6.21469" fill="#FF7BB2" fill-opacity="0.1"/>
<circle cx="42.8587" cy="160.757" r="6.21469" fill="#FF7BB2" fill-opacity="0.1"/>
<circle cx="98.791" cy="160.757" r="6.21469" fill="#FF7BB2" fill-opacity="0.1"/>
<circle cx="61.5028" cy="160.757" r="6.21469" fill="#FF7BB2" fill-opacity="0.1"/>
<circle cx="117.435" cy="160.757" r="6.21469" fill="#FF7BB2" fill-opacity="0.1"/>
<circle cx="24.2147" cy="178.271" r="6.21469" fill="#FF7BB2" fill-opacity="0.1"/>
<circle cx="80.1469" cy="178.271" r="6.21469" fill="#FF7BB2" fill-opacity="0.1"/>
<circle cx="42.8587" cy="178.271" r="6.21469" fill="#FF7BB2" fill-opacity="0.1"/>
<circle cx="98.791" cy="178.271" r="6.21469" fill="#FF7BB2" fill-opacity="0.1"/>
<circle cx="61.5028" cy="178.271" r="6.21469" fill="#FF7BB2" fill-opacity="0.1"/>
<circle cx="117.435" cy="178.271" r="6.21469" fill="#FF7BB2" fill-opacity="0.1"/>
<circle cx="24.2147" cy="195.785" r="6.21469" fill="#FF7BB2" fill-opacity="0.1"/>
<circle cx="80.1469" cy="195.785" r="6.21469" fill="#FF7BB2" fill-opacity="0.1"/>
<circle cx="42.8587" cy="195.785" r="6.21469" fill="#FF7BB2" fill-opacity="0.1"/>
<circle cx="98.791" cy="195.785" r="6.21469" fill="#FF7BB2" fill-opacity="0.1"/>
<circle cx="61.5028" cy="195.785" r="6.21469" fill="#FF7BB2" fill-opacity="0.1"/>
<circle cx="117.435" cy="195.785" r="6.21469" fill="#FF7BB2" fill-opacity="0.1"/>
<circle cx="248.25" cy="108.215" r="6.21469" fill="#FF7BB2" fill-opacity="0.1"/>
<circle cx="304.182" cy="108.215" r="6.21469" fill="#FF7BB2" fill-opacity="0.1"/>
<circle cx="266.894" cy="108.215" r="6.21469" fill="#FF7BB2" fill-opacity="0.1"/>
<circle cx="322.826" cy="108.215" r="6.21469" fill="#FF7BB2" fill-opacity="0.1"/>
<circle cx="285.538" cy="108.215" r="6.21469" fill="#FF7BB2" fill-opacity="0.1"/>
<circle cx="341.47" cy="108.215" r="6.21469" fill="#FF7BB2" fill-opacity="0.1"/>
<circle cx="248.25" cy="125.729" r="6.21469" fill="#FF7BB2" fill-opacity="0.1"/>
<circle cx="304.182" cy="125.729" r="6.21469" fill="#FF7BB2" fill-opacity="0.1"/>
<circle cx="266.894" cy="125.729" r="6.21469" fill="#FF7BB2" fill-opacity="0.1"/>
<circle cx="322.826" cy="125.729" r="6.21469" fill="#FF7BB2" fill-opacity="0.1"/>
<circle cx="285.538" cy="125.729" r="6.21469" fill="#FF7BB2" fill-opacity="0.1"/>
<circle cx="341.47" cy="125.729" r="6.21469" fill="#FF7BB2" fill-opacity="0.1"/>
<circle cx="248.25" cy="143.243" r="6.21469" fill="#FF7BB2" fill-opacity="0.1"/>
<circle cx="304.182" cy="143.243" r="6.21469" fill="#FF7BB2" fill-opacity="0.1"/>
<circle cx="266.894" cy="143.243" r="6.21469" fill="#FF7BB2" fill-opacity="0.1"/>
<circle cx="322.826" cy="143.243" r="6.21469" fill="#FF7BB2" fill-opacity="0.1"/>
<circle cx="285.538" cy="143.243" r="6.21469" fill="#FF7BB2" fill-opacity="0.1"/>
<circle cx="341.47" cy="143.243" r="6.21469" fill="#FF7BB2" fill-opacity="0.1"/>
<circle cx="248.25" cy="160.757" r="6.21469" fill="#FF7BB2" fill-opacity="0.1"/>
<circle cx="304.182" cy="160.757" r="6.21469" fill="#FF7BB2" fill-opacity="0.1"/>
<circle cx="266.894" cy="160.757" r="6.21469" fill="#FF7BB2" fill-opacity="0.1"/>
<circle cx="322.826" cy="160.757" r="6.21469" fill="#FF7BB2" fill-opacity="0.1"/>
<circle cx="285.538" cy="160.757" r="6.21469" fill="#FF7BB2" fill-opacity="0.1"/>
<circle cx="341.47" cy="160.757" r="6.21469" fill="#FF7BB2" fill-opacity="0.1"/>
<circle cx="248.25" cy="178.271" r="6.21469" fill="#FF7BB2" fill-opacity="0.1"/>
<circle cx="304.182" cy="178.271" r="6.21469" fill="#FF7BB2" fill-opacity="0.1"/>
<circle cx="266.894" cy="178.271" r="6.21469" fill="#FF7BB2" fill-opacity="0.1"/>
<circle cx="322.826" cy="178.271" r="6.21469" fill="#FF7BB2" fill-opacity="0.1"/>
<circle cx="285.538" cy="178.271" r="6.21469" fill="#FF7BB2" fill-opacity="0.1"/>
<circle cx="341.47" cy="178.271" r="6.21469" fill="#FF7BB2" fill-opacity="0.1"/>
<circle cx="248.25" cy="195.785" r="6.21469" fill="#FF7BB2" fill-opacity="0.1"/>
<circle cx="304.182" cy="195.785" r="6.21469" fill="#FF7BB2" fill-opacity="0.1"/>
<circle cx="266.894" cy="195.785" r="6.21469" fill="#FF7BB2" fill-opacity="0.1"/>
<circle cx="322.826" cy="195.785" r="6.21469" fill="#FF7BB2" fill-opacity="0.1"/>
<circle cx="285.538" cy="195.785" r="6.21469" fill="#FF7BB2" fill-opacity="0.1"/>
<circle cx="341.47" cy="195.785" r="6.21469" fill="#FF7BB2" fill-opacity="0.1"/>
<circle cx="24.1793" cy="322.215" r="6.21469" fill="#FF7BB2" fill-opacity="0.1"/>
<circle cx="80.1115" cy="322.215" r="6.21469" fill="#FF7BB2" fill-opacity="0.1"/>
<circle cx="42.8233" cy="322.215" r="6.21469" fill="#FF7BB2" fill-opacity="0.1"/>
<circle cx="98.7556" cy="322.215" r="6.21469" fill="#FF7BB2" fill-opacity="0.1"/>
<circle cx="61.4674" cy="322.215" r="6.21469" fill="#FF7BB2" fill-opacity="0.1"/>
<circle cx="117.4" cy="322.215" r="6.21469" fill="#FF7BB2" fill-opacity="0.1"/>
<circle cx="24.1793" cy="339.729" r="6.21469" fill="#FF7BB2" fill-opacity="0.1"/>
<circle cx="80.1115" cy="339.729" r="6.21469" fill="#FF7BB2" fill-opacity="0.1"/>
<circle cx="42.8233" cy="339.729" r="6.21469" fill="#FF7BB2" fill-opacity="0.1"/>
<circle cx="98.7556" cy="339.729" r="6.21469" fill="#FF7BB2" fill-opacity="0.1"/>
<circle cx="61.4674" cy="339.729" r="6.21469" fill="#FF7BB2" fill-opacity="0.1"/>
<circle cx="117.4" cy="339.729" r="6.21469" fill="#FF7BB2" fill-opacity="0.1"/>
<circle cx="24.1793" cy="357.243" r="6.21469" fill="#FF7BB2" fill-opacity="0.1"/>
<circle cx="80.1115" cy="357.243" r="6.21469" fill="#FF7BB2" fill-opacity="0.1"/>
<circle cx="42.8233" cy="357.243" r="6.21469" fill="#FF7BB2" fill-opacity="0.1"/>
<circle cx="98.7556" cy="357.243" r="6.21469" fill="#FF7BB2" fill-opacity="0.1"/>
<circle cx="61.4674" cy="357.243" r="6.21469" fill="#FF7BB2" fill-opacity="0.1"/>
<circle cx="117.4" cy="357.243" r="6.21469" fill="#FF7BB2" fill-opacity="0.1"/>
<circle cx="24.1793" cy="374.757" r="6.21469" fill="#FF7BB2" fill-opacity="0.1"/>
<circle cx="80.1115" cy="374.757" r="6.21469" fill="#FF7BB2" fill-opacity="0.1"/>
<circle cx="42.8233" cy="374.757" r="6.21469" fill="#FF7BB2" fill-opacity="0.1"/>
<circle cx="98.7556" cy="374.757" r="6.21469" fill="#FF7BB2" fill-opacity="0.1"/>
<circle cx="61.4674" cy="374.757" r="6.21469" fill="#FF7BB2" fill-opacity="0.1"/>
<circle cx="117.4" cy="374.757" r="6.21469" fill="#FF7BB2" fill-opacity="0.1"/>
<circle cx="24.1793" cy="392.271" r="6.21469" fill="#FF7BB2" fill-opacity="0.1"/>
<circle cx="80.1115" cy="392.271" r="6.21469" fill="#FF7BB2" fill-opacity="0.1"/>
<circle cx="42.8233" cy="392.271" r="6.21469" fill="#FF7BB2" fill-opacity="0.1"/>
<circle cx="98.7556" cy="392.271" r="6.21469" fill="#FF7BB2" fill-opacity="0.1"/>
<circle cx="61.4674" cy="392.271" r="6.21469" fill="#FF7BB2" fill-opacity="0.1"/>
<circle cx="117.4" cy="392.271" r="6.21469" fill="#FF7BB2" fill-opacity="0.1"/>
<circle cx="24.1793" cy="409.785" r="6.21469" fill="#FF7BB2" fill-opacity="0.1"/>
<circle cx="80.1115" cy="409.785" r="6.21469" fill="#FF7BB2" fill-opacity="0.1"/>
<circle cx="42.8233" cy="409.785" r="6.21469" fill="#FF7BB2" fill-opacity="0.1"/>
<circle cx="98.7556" cy="409.785" r="6.21469" fill="#FF7BB2" fill-opacity="0.1"/>
<circle cx="61.4674" cy="409.785" r="6.21469" fill="#FF7BB2" fill-opacity="0.1"/>
<circle cx="117.4" cy="409.785" r="6.21469" fill="#FF7BB2" fill-opacity="0.1"/>
<circle cx="248.215" cy="322.215" r="6.21469" fill="#FF7BB2" fill-opacity="0.1"/>
<circle cx="304.147" cy="322.215" r="6.21469" fill="#FF7BB2" fill-opacity="0.1"/>
<circle cx="266.859" cy="322.215" r="6.21469" fill="#FF7BB2" fill-opacity="0.1"/>
<circle cx="322.791" cy="322.215" r="6.21469" fill="#FF7BB2" fill-opacity="0.1"/>
<circle cx="285.503" cy="322.215" r="6.21469" fill="#FF7BB2" fill-opacity="0.1"/>
<circle cx="341.435" cy="322.215" r="6.21469" fill="#FF7BB2" fill-opacity="0.1"/>
<circle cx="248.215" cy="339.729" r="6.21469" fill="#FF7BB2" fill-opacity="0.1"/>
<circle cx="304.147" cy="339.729" r="6.21469" fill="#FF7BB2" fill-opacity="0.1"/>
<circle cx="266.859" cy="339.729" r="6.21469" fill="#FF7BB2" fill-opacity="0.1"/>
<circle cx="322.791" cy="339.729" r="6.21469" fill="#FF7BB2" fill-opacity="0.1"/>
<circle cx="285.503" cy="339.729" r="6.21469" fill="#FF7BB2" fill-opacity="0.1"/>
<circle cx="341.435" cy="339.729" r="6.21469" fill="#FF7BB2" fill-opacity="0.1"/>
<circle cx="248.215" cy="357.243" r="6.21469" fill="#FF7BB2" fill-opacity="0.1"/>
<circle cx="304.147" cy="357.243" r="6.21469" fill="#FF7BB2" fill-opacity="0.1"/>
<circle cx="266.859" cy="357.243" r="6.21469" fill="#FF7BB2" fill-opacity="0.1"/>
<circle cx="322.791" cy="357.243" r="6.21469" fill="#FF7BB2" fill-opacity="0.1"/>
<circle cx="285.503" cy="357.243" r="6.21469" fill="#FF7BB2" fill-opacity="0.1"/>
<circle cx="341.435" cy="357.243" r="6.21469" fill="#FF7BB2" fill-opacity="0.1"/>
<circle cx="248.215" cy="374.757" r="6.21469" fill="#FF7BB2" fill-opacity="0.1"/>
<circle cx="304.147" cy="374.757" r="6.21469" fill="#FF7BB2" fill-opacity="0.1"/>
<circle cx="266.859" cy="374.757" r="6.21469" fill="#FF7BB2" fill-opacity="0.1"/>
<circle cx="322.791" cy="374.757" r="6.21469" fill="#FF7BB2" fill-opacity="0.1"/>
<circle cx="285.503" cy="374.757" r="6.21469" fill="#FF7BB2" fill-opacity="0.1"/>
<circle cx="341.435" cy="374.757" r="6.21469" fill="#FF7BB2" fill-opacity="0.1"/>
<circle cx="248.215" cy="392.271" r="6.21469" fill="#FF7BB2" fill-opacity="0.1"/>
<circle cx="304.147" cy="392.271" r="6.21469" fill="#FF7BB2" fill-opacity="0.1"/>
<circle cx="266.859" cy="392.271" r="6.21469" fill="#FF7BB2" fill-opacity="0.1"/>
<circle cx="322.791" cy="392.271" r="6.21469" fill="#FF7BB2" fill-opacity="0.1"/>
<circle cx="285.503" cy="392.271" r="6.21469" fill="#FF7BB2" fill-opacity="0.1"/>
<circle cx="341.435" cy="392.271" r="6.21469" fill="#FF7BB2" fill-opacity="0.1"/>
<circle cx="248.215" cy="409.785" r="6.21469" fill="#FF7BB2" fill-opacity="0.1"/>
<circle cx="304.147" cy="409.785" r="6.21469" fill="#FF7BB2" fill-opacity="0.1"/>
<circle cx="266.859" cy="409.785" r="6.21469" fill="#FF7BB2" fill-opacity="0.1"/>
<circle cx="322.791" cy="409.785" r="6.21469" fill="#FF7BB2" fill-opacity="0.1"/>
<circle cx="285.503" cy="409.785" r="6.21469" fill="#FF7BB2" fill-opacity="0.1"/>
<circle cx="341.435" cy="409.785" r="6.21469" fill="#FF7BB2" fill-opacity="0.1"/>
<circle cx="136.215" cy="108.215" r="6.21469" fill="#FF7BB2" fill-opacity="0.1"/>
<circle cx="192.147" cy="108.215" r="6.21469" fill="#FF7BB2" fill-opacity="0.1"/>
<circle cx="154.859" cy="108.215" r="6.21469" fill="#FF7BB2" fill-opacity="0.1"/>
<circle cx="210.791" cy="108.215" r="6.21469" fill="#FF7BB2" fill-opacity="0.1"/>
<circle cx="173.503" cy="108.215" r="6.21469" fill="#FF7BB2" fill-opacity="0.1"/>
<circle cx="229.435" cy="108.215" r="6.21469" fill="#FF7BB2" fill-opacity="0.1"/>
<circle cx="136.215" cy="125.729" r="6.21469" fill="#FF7BB2" fill-opacity="0.1"/>
<circle cx="192.147" cy="125.729" r="6.21469" fill="#FF7BB2" fill-opacity="0.1"/>
<circle cx="154.859" cy="125.729" r="6.21469" fill="#FF7BB2" fill-opacity="0.1"/>
<circle cx="210.791" cy="125.729" r="6.21469" fill="#FF7BB2" fill-opacity="0.1"/>
<circle cx="173.503" cy="125.729" r="6.21469" fill="#FF7BB2" fill-opacity="0.1"/>
<circle cx="229.435" cy="125.729" r="6.21469" fill="#FF7BB2" fill-opacity="0.1"/>
<circle cx="136.215" cy="143.243" r="6.21469" fill="#FF7BB2" fill-opacity="0.1"/>
<circle cx="192.147" cy="143.243" r="6.21469" fill="#FF7BB2" fill-opacity="0.1"/>
<circle cx="154.859" cy="143.243" r="6.21469" fill="#FF7BB2" fill-opacity="0.1"/>
<circle cx="210.791" cy="143.243" r="6.21469" fill="#FF7BB2" fill-opacity="0.1"/>
<circle cx="173.503" cy="143.243" r="6.21469" fill="#FF7BB2" fill-opacity="0.1"/>
<circle cx="229.435" cy="143.243" r="6.21469" fill="#FF7BB2" fill-opacity="0.1"/>
<circle cx="136.215" cy="160.757" r="6.21469" fill="#FF7BB2" fill-opacity="0.1"/>
<circle cx="192.147" cy="160.757" r="6.21469" fill="#FF7BB2" fill-opacity="0.1"/>
<circle cx="154.859" cy="160.757" r="6.21469" fill="#FF7BB2" fill-opacity="0.1"/>
<circle cx="210.791" cy="160.757" r="6.21469" fill="#FF7BB2" fill-opacity="0.1"/>
<circle cx="173.503" cy="160.757" r="6.21469" fill="#FF7BB2" fill-opacity="0.1"/>
<circle cx="229.435" cy="160.757" r="6.21469" fill="#FF7BB2" fill-opacity="0.1"/>
<circle cx="136.215" cy="178.271" r="6.21469" fill="#FF7BB2" fill-opacity="0.1"/>
<circle cx="192.147" cy="178.271" r="6.21469" fill="#FF7BB2" fill-opacity="0.1"/>
<circle cx="154.859" cy="178.271" r="6.21469" fill="#FF7BB2" fill-opacity="0.1"/>
<circle cx="210.791" cy="178.271" r="6.21469" fill="#FF7BB2" fill-opacity="0.1"/>
<circle cx="173.503" cy="178.271" r="6.21469" fill="#FF7BB2" fill-opacity="0.1"/>
<circle cx="229.435" cy="178.271" r="6.21469" fill="#FF7BB2" fill-opacity="0.1"/>
<circle cx="136.215" cy="195.785" r="6.21469" fill="#FF7BB2" fill-opacity="0.1"/>
<circle cx="192.147" cy="195.785" r="6.21469" fill="#FF7BB2" fill-opacity="0.1"/>
<circle cx="154.859" cy="195.785" r="6.21469" fill="#FF7BB2" fill-opacity="0.1"/>
<circle cx="210.791" cy="195.785" r="6.21469" fill="#FF7BB2" fill-opacity="0.1"/>
<circle cx="173.503" cy="195.785" r="6.21469" fill="#FF7BB2" fill-opacity="0.1"/>
<circle cx="229.435" cy="195.785" r="6.21469" fill="#FF7BB2" fill-opacity="0.1"/>
<circle cx="360.25" cy="108.215" r="6.21469" fill="#FF7BB2" fill-opacity="0.1"/>
<circle cx="416.182" cy="108.215" r="6.21469" fill="#FF7BB2" fill-opacity="0.1"/>
<circle cx="378.894" cy="108.215" r="6.21469" fill="#FF7BB2" fill-opacity="0.1"/>
<circle cx="397.538" cy="108.215" r="6.21469" fill="#FF7BB2" fill-opacity="0.1"/>
<circle cx="360.25" cy="125.729" r="6.21469" fill="#FF7BB2" fill-opacity="0.1"/>
<circle cx="416.182" cy="125.729" r="6.21469" fill="#FF7BB2" fill-opacity="0.1"/>
<circle cx="378.894" cy="125.729" r="6.21469" fill="#FF7BB2" fill-opacity="0.1"/>
<circle cx="397.538" cy="125.729" r="6.21469" fill="#FF7BB2" fill-opacity="0.1"/>
<circle cx="360.25" cy="143.243" r="6.21469" fill="#FF7BB2" fill-opacity="0.1"/>
<circle cx="416.182" cy="143.243" r="6.21469" fill="#FF7BB2" fill-opacity="0.1"/>
<circle cx="378.894" cy="143.243" r="6.21469" fill="#FF7BB2" fill-opacity="0.1"/>
<circle cx="397.538" cy="143.243" r="6.21469" fill="#FF7BB2" fill-opacity="0.1"/>
<circle cx="360.25" cy="160.757" r="6.21469" fill="#FF7BB2" fill-opacity="0.1"/>
<circle cx="416.182" cy="160.757" r="6.21469" fill="#FF7BB2" fill-opacity="0.1"/>
<circle cx="378.894" cy="160.757" r="6.21469" fill="#FF7BB2" fill-opacity="0.1"/>
<circle cx="397.538" cy="160.757" r="6.21469" fill="#FF7BB2" fill-opacity="0.1"/>
<circle cx="360.25" cy="178.271" r="6.21469" fill="#FF7BB2" fill-opacity="0.1"/>
<circle cx="416.182" cy="178.271" r="6.21469" fill="#FF7BB2" fill-opacity="0.1"/>
<circle cx="378.894" cy="178.271" r="6.21469" fill="#FF7BB2" fill-opacity="0.1"/>
<circle cx="397.538" cy="178.271" r="6.21469" fill="#FF7BB2" fill-opacity="0.1"/>
<circle cx="360.25" cy="195.785" r="6.21469" fill="#FF7BB2" fill-opacity="0.1"/>
<circle cx="416.182" cy="195.785" r="6.21469" fill="#FF7BB2" fill-opacity="0.1"/>
<circle cx="378.894" cy="195.785" r="6.21469" fill="#FF7BB2" fill-opacity="0.1"/>
<circle cx="397.538" cy="195.785" r="6.21469" fill="#FF7BB2" fill-opacity="0.1"/>
<circle cx="136.179" cy="322.215" r="6.21469" fill="#FF7BB2" fill-opacity="0.1"/>
<circle cx="192.111" cy="322.215" r="6.21469" fill="#FF7BB2" fill-opacity="0.1"/>
<circle cx="154.823" cy="322.215" r="6.21469" fill="#FF7BB2" fill-opacity="0.1"/>
<circle cx="210.756" cy="322.215" r="6.21469" fill="#FF7BB2" fill-opacity="0.1"/>
<circle cx="173.467" cy="322.215" r="6.21469" fill="#FF7BB2" fill-opacity="0.1"/>
<circle cx="229.4" cy="322.215" r="6.21469" fill="#FF7BB2" fill-opacity="0.1"/>
<circle cx="136.179" cy="339.729" r="6.21469" fill="#FF7BB2" fill-opacity="0.1"/>
<circle cx="192.111" cy="339.729" r="6.21469" fill="#FF7BB2" fill-opacity="0.1"/>
<circle cx="154.823" cy="339.729" r="6.21469" fill="#FF7BB2" fill-opacity="0.1"/>
<circle cx="210.756" cy="339.729" r="6.21469" fill="#FF7BB2" fill-opacity="0.1"/>
<circle cx="173.467" cy="339.729" r="6.21469" fill="#FF7BB2" fill-opacity="0.1"/>
<circle cx="229.4" cy="339.729" r="6.21469" fill="#FF7BB2" fill-opacity="0.1"/>
<circle cx="136.179" cy="357.243" r="6.21469" fill="#FF7BB2" fill-opacity="0.1"/>
<circle cx="192.111" cy="357.243" r="6.21469" fill="#FF7BB2" fill-opacity="0.1"/>
<circle cx="154.823" cy="357.243" r="6.21469" fill="#FF7BB2" fill-opacity="0.1"/>
<circle cx="210.756" cy="357.243" r="6.21469" fill="#FF7BB2" fill-opacity="0.1"/>
<circle cx="173.467" cy="357.243" r="6.21469" fill="#FF7BB2" fill-opacity="0.1"/>
<circle cx="229.4" cy="357.243" r="6.21469" fill="#FF7BB2" fill-opacity="0.1"/>
<circle cx="136.179" cy="374.757" r="6.21469" fill="#FF7BB2" fill-opacity="0.1"/>
<circle cx="192.111" cy="374.757" r="6.21469" fill="#FF7BB2" fill-opacity="0.1"/>
<circle cx="154.823" cy="374.757" r="6.21469" fill="#FF7BB2" fill-opacity="0.1"/>
<circle cx="210.756" cy="374.757" r="6.21469" fill="#FF7BB2" fill-opacity="0.1"/>
<circle cx="173.467" cy="374.757" r="6.21469" fill="#FF7BB2" fill-opacity="0.1"/>
<circle cx="229.4" cy="374.757" r="6.21469" fill="#FF7BB2" fill-opacity="0.1"/>
<circle cx="136.179" cy="392.271" r="6.21469" fill="#FF7BB2" fill-opacity="0.1"/>
<circle cx="192.111" cy="392.271" r="6.21469" fill="#FF7BB2" fill-opacity="0.1"/>
<circle cx="154.823" cy="392.271" r="6.21469" fill="#FF7BB2" fill-opacity="0.1"/>
<circle cx="210.756" cy="392.271" r="6.21469" fill="#FF7BB2" fill-opacity="0.1"/>
<circle cx="173.467" cy="392.271" r="6.21469" fill="#FF7BB2" fill-opacity="0.1"/>
<circle cx="229.4" cy="392.271" r="6.21469" fill="#FF7BB2" fill-opacity="0.1"/>
<circle cx="136.179" cy="409.785" r="6.21469" fill="#FF7BB2" fill-opacity="0.1"/>
<circle cx="192.111" cy="409.785" r="6.21469" fill="#FF7BB2" fill-opacity="0.1"/>
<circle cx="154.823" cy="409.785" r="6.21469" fill="#FF7BB2" fill-opacity="0.1"/>
<circle cx="210.756" cy="409.785" r="6.21469" fill="#FF7BB2" fill-opacity="0.1"/>
<circle cx="173.467" cy="409.785" r="6.21469" fill="#FF7BB2" fill-opacity="0.1"/>
<circle cx="229.4" cy="409.785" r="6.21469" fill="#FF7BB2" fill-opacity="0.1"/>
<circle cx="360.215" cy="322.215" r="6.21469" fill="#FF7BB2" fill-opacity="0.1"/>
<circle cx="416.147" cy="322.215" r="6.21469" fill="#FF7BB2" fill-opacity="0.1"/>
<circle cx="378.859" cy="322.215" r="6.21469" fill="#FF7BB2" fill-opacity="0.1"/>
<circle cx="397.503" cy="322.215" r="6.21469" fill="#FF7BB2" fill-opacity="0.1"/>
<circle cx="360.215" cy="339.729" r="6.21469" fill="#FF7BB2" fill-opacity="0.1"/>
<circle cx="416.147" cy="339.729" r="6.21469" fill="#FF7BB2" fill-opacity="0.1"/>
<circle cx="378.859" cy="339.729" r="6.21469" fill="#FF7BB2" fill-opacity="0.1"/>
<circle cx="397.503" cy="339.729" r="6.21469" fill="#FF7BB2" fill-opacity="0.1"/>
<circle cx="360.215" cy="357.243" r="6.21469" fill="#FF7BB2" fill-opacity="0.1"/>
<circle cx="416.147" cy="357.243" r="6.21469" fill="#FF7BB2" fill-opacity="0.1"/>
<circle cx="378.859" cy="357.243" r="6.21469" fill="#FF7BB2" fill-opacity="0.1"/>
<circle cx="397.503" cy="357.243" r="6.21469" fill="#FF7BB2" fill-opacity="0.1"/>
<circle cx="360.215" cy="374.757" r="6.21469" fill="#FF7BB2" fill-opacity="0.1"/>
<circle cx="416.147" cy="374.757" r="6.21469" fill="#FF7BB2" fill-opacity="0.1"/>
<circle cx="378.859" cy="374.757" r="6.21469" fill="#FF7BB2" fill-opacity="0.1"/>
<circle cx="397.503" cy="374.757" r="6.21469" fill="#FF7BB2" fill-opacity="0.1"/>
<circle cx="360.215" cy="392.271" r="6.21469" fill="#FF7BB2" fill-opacity="0.1"/>
<circle cx="416.147" cy="392.271" r="6.21469" fill="#FF7BB2" fill-opacity="0.1"/>
<circle cx="378.859" cy="392.271" r="6.21469" fill="#FF7BB2" fill-opacity="0.1"/>
<circle cx="397.503" cy="392.271" r="6.21469" fill="#FF7BB2" fill-opacity="0.1"/>
<circle cx="360.215" cy="409.785" r="6.21469" fill="#FF7BB2" fill-opacity="0.1"/>
<circle cx="416.147" cy="409.785" r="6.21469" fill="#FF7BB2" fill-opacity="0.1"/>
<circle cx="378.859" cy="409.785" r="6.21469" fill="#FF7BB2" fill-opacity="0.1"/>
<circle cx="397.503" cy="409.785" r="6.21469" fill="#FF7BB2" fill-opacity="0.1"/>
<circle cx="24.2147" cy="1.21469" r="6.21469" fill="#FF7BB2" fill-opacity="0.1"/>
<circle cx="80.1469" cy="1.21469" r="6.21469" fill="#FF7BB2" fill-opacity="0.1"/>
<circle cx="42.8587" cy="1.21469" r="6.21469" fill="#FF7BB2" fill-opacity="0.1"/>
<circle cx="98.791" cy="1.21469" r="6.21469" fill="#FF7BB2" fill-opacity="0.1"/>
<circle cx="61.5028" cy="1.21469" r="6.21469" fill="#FF7BB2" fill-opacity="0.1"/>
<circle cx="117.435" cy="1.21469" r="6.21469" fill="#FF7BB2" fill-opacity="0.1"/>
<circle cx="24.2147" cy="18.7288" r="6.21469" fill="#FF7BB2" fill-opacity="0.1"/>
<circle cx="80.1469" cy="18.7288" r="6.21469" fill="#FF7BB2" fill-opacity="0.1"/>
<circle cx="42.8587" cy="18.7288" r="6.21469" fill="#FF7BB2" fill-opacity="0.1"/>
<circle cx="98.791" cy="18.7288" r="6.21469" fill="#FF7BB2" fill-opacity="0.1"/>
<circle cx="61.5028" cy="18.7288" r="6.21469" fill="#FF7BB2" fill-opacity="0.1"/>
<circle cx="117.435" cy="18.7288" r="6.21469" fill="#FF7BB2" fill-opacity="0.1"/>
<circle cx="24.2147" cy="36.2429" r="6.21469" fill="#FF7BB2" fill-opacity="0.1"/>
<circle cx="80.1469" cy="36.2429" r="6.21469" fill="#FF7BB2" fill-opacity="0.1"/>
<circle cx="42.8587" cy="36.2429" r="6.21469" fill="#FF7BB2" fill-opacity="0.1"/>
<circle cx="98.791" cy="36.2429" r="6.21469" fill="#FF7BB2" fill-opacity="0.1"/>
<circle cx="61.5028" cy="36.2429" r="6.21469" fill="#FF7BB2" fill-opacity="0.1"/>
<circle cx="117.435" cy="36.2429" r="6.21469" fill="#FF7BB2" fill-opacity="0.1"/>
<circle cx="24.2147" cy="53.7571" r="6.21469" fill="#FF7BB2" fill-opacity="0.1"/>
<circle cx="80.1469" cy="53.7571" r="6.21469" fill="#FF7BB2" fill-opacity="0.1"/>
<circle cx="42.8587" cy="53.7571" r="6.21469" fill="#FF7BB2" fill-opacity="0.1"/>
<circle cx="98.791" cy="53.7571" r="6.21469" fill="#FF7BB2" fill-opacity="0.1"/>
<circle cx="61.5028" cy="53.7571" r="6.21469" fill="#FF7BB2" fill-opacity="0.1"/>
<circle cx="117.435" cy="53.7571" r="6.21469" fill="#FF7BB2" fill-opacity="0.1"/>
<circle cx="24.2147" cy="71.2712" r="6.21469" fill="#FF7BB2" fill-opacity="0.1"/>
<circle cx="80.1469" cy="71.2712" r="6.21469" fill="#FF7BB2" fill-opacity="0.1"/>
<circle cx="42.8587" cy="71.2712" r="6.21469" fill="#FF7BB2" fill-opacity="0.1"/>
<circle cx="98.791" cy="71.2712" r="6.21469" fill="#FF7BB2" fill-opacity="0.1"/>
<circle cx="61.5028" cy="71.2712" r="6.21469" fill="#FF7BB2" fill-opacity="0.1"/>
<circle cx="117.435" cy="71.2712" r="6.21469" fill="#FF7BB2" fill-opacity="0.1"/>
<circle cx="24.2147" cy="88.7853" r="6.21469" fill="#FF7BB2" fill-opacity="0.1"/>
<circle cx="80.1469" cy="88.7853" r="6.21469" fill="#FF7BB2" fill-opacity="0.1"/>
<circle cx="42.8587" cy="88.7853" r="6.21469" fill="#FF7BB2" fill-opacity="0.1"/>
<circle cx="98.791" cy="88.7853" r="6.21469" fill="#FF7BB2" fill-opacity="0.1"/>
<circle cx="61.5028" cy="88.7853" r="6.21469" fill="#FF7BB2" fill-opacity="0.1"/>
<circle cx="117.435" cy="88.7853" r="6.21469" fill="#FF7BB2" fill-opacity="0.1"/>
<circle cx="248.25" cy="1.21469" r="6.21469" fill="#FF7BB2" fill-opacity="0.1"/>
<circle cx="304.182" cy="1.21469" r="6.21469" fill="#FF7BB2" fill-opacity="0.1"/>
<circle cx="266.894" cy="1.21469" r="6.21469" fill="#FF7BB2" fill-opacity="0.1"/>
<circle cx="322.826" cy="1.21469" r="6.21469" fill="#FF7BB2" fill-opacity="0.1"/>
<circle cx="285.538" cy="1.21469" r="6.21469" fill="#FF7BB2" fill-opacity="0.1"/>
<circle cx="341.47" cy="1.21469" r="6.21469" fill="#FF7BB2" fill-opacity="0.1"/>
<circle cx="248.25" cy="18.7288" r="6.21469" fill="#FF7BB2" fill-opacity="0.1"/>
<circle cx="304.182" cy="18.7288" r="6.21469" fill="#FF7BB2" fill-opacity="0.1"/>
<circle cx="266.894" cy="18.7288" r="6.21469" fill="#FF7BB2" fill-opacity="0.1"/>
<circle cx="322.826" cy="18.7288" r="6.21469" fill="#FF7BB2" fill-opacity="0.1"/>
<circle cx="285.538" cy="18.7288" r="6.21469" fill="#FF7BB2" fill-opacity="0.1"/>
<circle cx="341.47" cy="18.7288" r="6.21469" fill="#FF7BB2" fill-opacity="0.1"/>
<circle cx="248.25" cy="36.2429" r="6.21469" fill="#FF7BB2" fill-opacity="0.1"/>
<circle cx="304.182" cy="36.2429" r="6.21469" fill="#FF7BB2" fill-opacity="0.1"/>
<circle cx="266.894" cy="36.2429" r="6.21469" fill="#FF7BB2" fill-opacity="0.1"/>
<circle cx="322.826" cy="36.2429" r="6.21469" fill="#FF7BB2" fill-opacity="0.1"/>
<circle cx="285.538" cy="36.2429" r="6.21469" fill="#FF7BB2" fill-opacity="0.1"/>
<circle cx="341.47" cy="36.2429" r="6.21469" fill="#FF7BB2" fill-opacity="0.1"/>
<circle cx="248.25" cy="53.7571" r="6.21469" fill="#FF7BB2" fill-opacity="0.1"/>
<circle cx="304.182" cy="53.7571" r="6.21469" fill="#FF7BB2" fill-opacity="0.1"/>
<circle cx="266.894" cy="53.7571" r="6.21469" fill="#FF7BB2" fill-opacity="0.1"/>
<circle cx="322.826" cy="53.7571" r="6.21469" fill="#FF7BB2" fill-opacity="0.1"/>
<circle cx="285.538" cy="53.7571" r="6.21469" fill="#FF7BB2" fill-opacity="0.1"/>
<circle cx="341.47" cy="53.7571" r="6.21469" fill="#FF7BB2" fill-opacity="0.1"/>
<circle cx="248.25" cy="71.2712" r="6.21469" fill="#FF7BB2" fill-opacity="0.1"/>
<circle cx="304.182" cy="71.2712" r="6.21469" fill="#FF7BB2" fill-opacity="0.1"/>
<circle cx="266.894" cy="71.2712" r="6.21469" fill="#FF7BB2" fill-opacity="0.1"/>
<circle cx="322.826" cy="71.2712" r="6.21469" fill="#FF7BB2" fill-opacity="0.1"/>
<circle cx="285.538" cy="71.2712" r="6.21469" fill="#FF7BB2" fill-opacity="0.1"/>
<circle cx="341.47" cy="71.2712" r="6.21469" fill="#FF7BB2" fill-opacity="0.1"/>
<circle cx="248.25" cy="88.7853" r="6.21469" fill="#FF7BB2" fill-opacity="0.1"/>
<circle cx="304.182" cy="88.7853" r="6.21469" fill="#FF7BB2" fill-opacity="0.1"/>
<circle cx="266.894" cy="88.7853" r="6.21469" fill="#FF7BB2" fill-opacity="0.1"/>
<circle cx="322.826" cy="88.7853" r="6.21469" fill="#FF7BB2" fill-opacity="0.1"/>
<circle cx="285.538" cy="88.7853" r="6.21469" fill="#FF7BB2" fill-opacity="0.1"/>
<circle cx="341.47" cy="88.7853" r="6.21469" fill="#FF7BB2" fill-opacity="0.1"/>
<circle cx="24.1793" cy="215.215" r="6.21469" fill="#FF7BB2" fill-opacity="0.1"/>
<circle cx="80.1115" cy="215.215" r="6.21469" fill="#FF7BB2" fill-opacity="0.1"/>
<circle cx="42.8233" cy="215.215" r="6.21469" fill="#FF7BB2" fill-opacity="0.1"/>
<circle cx="98.7556" cy="215.215" r="6.21469" fill="#FF7BB2" fill-opacity="0.1"/>
<circle cx="61.4674" cy="215.215" r="6.21469" fill="#FF7BB2" fill-opacity="0.1"/>
<circle cx="117.4" cy="215.215" r="6.21469" fill="#FF7BB2" fill-opacity="0.1"/>
<circle cx="24.1793" cy="232.729" r="6.21469" fill="#FF7BB2" fill-opacity="0.1"/>
<circle cx="80.1115" cy="232.729" r="6.21469" fill="#FF7BB2" fill-opacity="0.1"/>
<circle cx="42.8233" cy="232.729" r="6.21469" fill="#FF7BB2" fill-opacity="0.1"/>
<circle cx="98.7556" cy="232.729" r="6.21469" fill="#FF7BB2" fill-opacity="0.1"/>
<circle cx="61.4674" cy="232.729" r="6.21469" fill="#FF7BB2" fill-opacity="0.1"/>
<circle cx="117.4" cy="232.729" r="6.21469" fill="#FF7BB2" fill-opacity="0.1"/>
<circle cx="24.1793" cy="250.243" r="6.21469" fill="#FF7BB2" fill-opacity="0.1"/>
<circle cx="80.1115" cy="250.243" r="6.21469" fill="#FF7BB2" fill-opacity="0.1"/>
<circle cx="42.8233" cy="250.243" r="6.21469" fill="#FF7BB2" fill-opacity="0.1"/>
<circle cx="98.7556" cy="250.243" r="6.21469" fill="#FF7BB2" fill-opacity="0.1"/>
<circle cx="61.4674" cy="250.243" r="6.21469" fill="#FF7BB2" fill-opacity="0.1"/>
<circle cx="117.4" cy="250.243" r="6.21469" fill="#FF7BB2" fill-opacity="0.1"/>
<circle cx="24.1793" cy="267.757" r="6.21469" fill="#FF7BB2" fill-opacity="0.1"/>
<circle cx="80.1115" cy="267.757" r="6.21469" fill="#FF7BB2" fill-opacity="0.1"/>
<circle cx="42.8233" cy="267.757" r="6.21469" fill="#FF7BB2" fill-opacity="0.1"/>
<circle cx="98.7556" cy="267.757" r="6.21469" fill="#FF7BB2" fill-opacity="0.1"/>
<circle cx="61.4674" cy="267.757" r="6.21469" fill="#FF7BB2" fill-opacity="0.1"/>
<circle cx="117.4" cy="267.757" r="6.21469" fill="#FF7BB2" fill-opacity="0.1"/>
<circle cx="24.1793" cy="285.271" r="6.21469" fill="#FF7BB2" fill-opacity="0.1"/>
<circle cx="80.1115" cy="285.271" r="6.21469" fill="#FF7BB2" fill-opacity="0.1"/>
<circle cx="42.8233" cy="285.271" r="6.21469" fill="#FF7BB2" fill-opacity="0.1"/>
<circle cx="98.7556" cy="285.271" r="6.21469" fill="#FF7BB2" fill-opacity="0.1"/>
<circle cx="61.4674" cy="285.271" r="6.21469" fill="#FF7BB2" fill-opacity="0.1"/>
<circle cx="117.4" cy="285.271" r="6.21469" fill="#FF7BB2" fill-opacity="0.1"/>
<circle cx="24.1793" cy="302.785" r="6.21469" fill="#FF7BB2" fill-opacity="0.1"/>
<circle cx="80.1115" cy="302.785" r="6.21469" fill="#FF7BB2" fill-opacity="0.1"/>
<circle cx="42.8233" cy="302.785" r="6.21469" fill="#FF7BB2" fill-opacity="0.1"/>
<circle cx="98.7556" cy="302.785" r="6.21469" fill="#FF7BB2" fill-opacity="0.1"/>
<circle cx="61.4674" cy="302.785" r="6.21469" fill="#FF7BB2" fill-opacity="0.1"/>
<circle cx="117.4" cy="302.785" r="6.21469" fill="#FF7BB2" fill-opacity="0.1"/>
<circle cx="248.215" cy="215.215" r="6.21469" fill="#FF7BB2" fill-opacity="0.1"/>
<circle cx="304.147" cy="215.215" r="6.21469" fill="#FF7BB2" fill-opacity="0.1"/>
<circle cx="266.859" cy="215.215" r="6.21469" fill="#FF7BB2" fill-opacity="0.1"/>
<circle cx="322.791" cy="215.215" r="6.21469" fill="#FF7BB2" fill-opacity="0.1"/>
<circle cx="285.503" cy="215.215" r="6.21469" fill="#FF7BB2" fill-opacity="0.1"/>
<circle cx="341.435" cy="215.215" r="6.21469" fill="#FF7BB2" fill-opacity="0.1"/>
<circle cx="248.215" cy="232.729" r="6.21469" fill="#FF7BB2" fill-opacity="0.1"/>
<circle cx="304.147" cy="232.729" r="6.21469" fill="#FF7BB2" fill-opacity="0.1"/>
<circle cx="266.859" cy="232.729" r="6.21469" fill="#FF7BB2" fill-opacity="0.1"/>
<circle cx="322.791" cy="232.729" r="6.21469" fill="#FF7BB2" fill-opacity="0.1"/>
<circle cx="285.503" cy="232.729" r="6.21469" fill="#FF7BB2" fill-opacity="0.1"/>
<circle cx="341.435" cy="232.729" r="6.21469" fill="#FF7BB2" fill-opacity="0.1"/>
<circle cx="248.215" cy="250.243" r="6.21469" fill="#FF7BB2" fill-opacity="0.1"/>
<circle cx="304.147" cy="250.243" r="6.21469" fill="#FF7BB2" fill-opacity="0.1"/>
<circle cx="266.859" cy="250.243" r="6.21469" fill="#FF7BB2" fill-opacity="0.1"/>
<circle cx="322.791" cy="250.243" r="6.21469" fill="#FF7BB2" fill-opacity="0.1"/>
<circle cx="285.503" cy="250.243" r="6.21469" fill="#FF7BB2" fill-opacity="0.1"/>
<circle cx="341.435" cy="250.243" r="6.21469" fill="#FF7BB2" fill-opacity="0.1"/>
<circle cx="248.215" cy="267.757" r="6.21469" fill="#FF7BB2" fill-opacity="0.1"/>
<circle cx="304.147" cy="267.757" r="6.21469" fill="#FF7BB2" fill-opacity="0.1"/>
<circle cx="266.859" cy="267.757" r="6.21469" fill="#FF7BB2" fill-opacity="0.1"/>
<circle cx="322.791" cy="267.757" r="6.21469" fill="#FF7BB2" fill-opacity="0.1"/>
<circle cx="285.503" cy="267.757" r="6.21469" fill="#FF7BB2" fill-opacity="0.1"/>
<circle cx="341.435" cy="267.757" r="6.21469" fill="#FF7BB2" fill-opacity="0.1"/>
<circle cx="248.215" cy="285.271" r="6.21469" fill="#FF7BB2" fill-opacity="0.1"/>
<circle cx="304.147" cy="285.271" r="6.21469" fill="#FF7BB2" fill-opacity="0.1"/>
<circle cx="266.859" cy="285.271" r="6.21469" fill="#FF7BB2" fill-opacity="0.1"/>
<circle cx="322.791" cy="285.271" r="6.21469" fill="#FF7BB2" fill-opacity="0.1"/>
<circle cx="285.503" cy="285.271" r="6.21469" fill="#FF7BB2" fill-opacity="0.1"/>
<circle cx="341.435" cy="285.271" r="6.21469" fill="#FF7BB2" fill-opacity="0.1"/>
<circle cx="248.215" cy="302.785" r="6.21469" fill="#FF7BB2" fill-opacity="0.1"/>
<circle cx="304.147" cy="302.785" r="6.21469" fill="#FF7BB2" fill-opacity="0.1"/>
<circle cx="266.859" cy="302.785" r="6.21469" fill="#FF7BB2" fill-opacity="0.1"/>
<circle cx="322.791" cy="302.785" r="6.21469" fill="#FF7BB2" fill-opacity="0.1"/>
<circle cx="285.503" cy="302.785" r="6.21469" fill="#FF7BB2" fill-opacity="0.1"/>
<circle cx="341.435" cy="302.785" r="6.21469" fill="#FF7BB2" fill-opacity="0.1"/>
<circle cx="136.215" cy="1.21469" r="6.21469" fill="#FF7BB2" fill-opacity="0.1"/>
<circle cx="192.147" cy="1.21469" r="6.21469" fill="#FF7BB2" fill-opacity="0.1"/>
<circle cx="154.859" cy="1.21469" r="6.21469" fill="#FF7BB2" fill-opacity="0.1"/>
<circle cx="210.791" cy="1.21469" r="6.21469" fill="#FF7BB2" fill-opacity="0.1"/>
<circle cx="173.503" cy="1.21469" r="6.21469" fill="#FF7BB2" fill-opacity="0.1"/>
<circle cx="229.435" cy="1.21469" r="6.21469" fill="#FF7BB2" fill-opacity="0.1"/>
<circle cx="136.215" cy="18.7288" r="6.21469" fill="#FF7BB2" fill-opacity="0.1"/>
<circle cx="192.147" cy="18.7288" r="6.21469" fill="#FF7BB2" fill-opacity="0.1"/>
<circle cx="154.859" cy="18.7288" r="6.21469" fill="#FF7BB2" fill-opacity="0.1"/>
<circle cx="210.791" cy="18.7288" r="6.21469" fill="#FF7BB2" fill-opacity="0.1"/>
<circle cx="173.503" cy="18.7288" r="6.21469" fill="#FF7BB2" fill-opacity="0.1"/>
<circle cx="229.435" cy="18.7288" r="6.21469" fill="#FF7BB2" fill-opacity="0.1"/>
<circle cx="136.215" cy="36.2429" r="6.21469" fill="#FF7BB2" fill-opacity="0.1"/>
<circle cx="192.147" cy="36.2429" r="6.21469" fill="#FF7BB2" fill-opacity="0.1"/>
<circle cx="154.859" cy="36.2429" r="6.21469" fill="#FF7BB2" fill-opacity="0.1"/>
<circle cx="210.791" cy="36.2429" r="6.21469" fill="#FF7BB2" fill-opacity="0.1"/>
<circle cx="173.503" cy="36.2429" r="6.21469" fill="#FF7BB2" fill-opacity="0.1"/>
<circle cx="229.435" cy="36.2429" r="6.21469" fill="#FF7BB2" fill-opacity="0.1"/>
<circle cx="136.215" cy="53.7571" r="6.21469" fill="#FF7BB2" fill-opacity="0.1"/>
<circle cx="192.147" cy="53.7571" r="6.21469" fill="#FF7BB2" fill-opacity="0.1"/>
<circle cx="154.859" cy="53.7571" r="6.21469" fill="#FF7BB2" fill-opacity="0.1"/>
<circle cx="210.791" cy="53.7571" r="6.21469" fill="#FF7BB2" fill-opacity="0.1"/>
<circle cx="173.503" cy="53.7571" r="6.21469" fill="#FF7BB2" fill-opacity="0.1"/>
<circle cx="229.435" cy="53.7571" r="6.21469" fill="#FF7BB2" fill-opacity="0.1"/>
<circle cx="136.215" cy="71.2712" r="6.21469" fill="#FF7BB2" fill-opacity="0.1"/>
<circle cx="192.147" cy="71.2712" r="6.21469" fill="#FF7BB2" fill-opacity="0.1"/>
<circle cx="154.859" cy="71.2712" r="6.21469" fill="#FF7BB2" fill-opacity="0.1"/>
<circle cx="210.791" cy="71.2712" r="6.21469" fill="#FF7BB2" fill-opacity="0.1"/>
<circle cx="173.503" cy="71.2712" r="6.21469" fill="#FF7BB2" fill-opacity="0.1"/>
<circle cx="229.435" cy="71.2712" r="6.21469" fill="#FF7BB2" fill-opacity="0.1"/>
<circle cx="136.215" cy="88.7853" r="6.21469" fill="#FF7BB2" fill-opacity="0.1"/>
<circle cx="192.147" cy="88.7853" r="6.21469" fill="#FF7BB2" fill-opacity="0.1"/>
<circle cx="154.859" cy="88.7853" r="6.21469" fill="#FF7BB2" fill-opacity="0.1"/>
<circle cx="210.791" cy="88.7853" r="6.21469" fill="#FF7BB2" fill-opacity="0.1"/>
<circle cx="173.503" cy="88.7853" r="6.21469" fill="#FF7BB2" fill-opacity="0.1"/>
<circle cx="229.435" cy="88.7853" r="6.21469" fill="#FF7BB2" fill-opacity="0.1"/>
<circle cx="360.25" cy="1.21469" r="6.21469" fill="#FF7BB2" fill-opacity="0.1"/>
<circle cx="416.182" cy="1.21469" r="6.21469" fill="#FF7BB2" fill-opacity="0.1"/>
<circle cx="378.894" cy="1.21469" r="6.21469" fill="#FF7BB2" fill-opacity="0.1"/>
<circle cx="397.538" cy="1.21469" r="6.21469" fill="#FF7BB2" fill-opacity="0.1"/>
<circle cx="360.25" cy="18.7288" r="6.21469" fill="#FF7BB2" fill-opacity="0.1"/>
<circle cx="416.182" cy="18.7288" r="6.21469" fill="#FF7BB2" fill-opacity="0.1"/>
<circle cx="378.894" cy="18.7288" r="6.21469" fill="#FF7BB2" fill-opacity="0.1"/>
<circle cx="397.538" cy="18.7288" r="6.21469" fill="#FF7BB2" fill-opacity="0.1"/>
<circle cx="360.25" cy="36.2429" r="6.21469" fill="#FF7BB2" fill-opacity="0.1"/>
<circle cx="416.182" cy="36.2429" r="6.21469" fill="#FF7BB2" fill-opacity="0.1"/>
<circle cx="378.894" cy="36.2429" r="6.21469" fill="#FF7BB2" fill-opacity="0.1"/>
<circle cx="397.538" cy="36.2429" r="6.21469" fill="#FF7BB2" fill-opacity="0.1"/>
<circle cx="360.25" cy="53.7571" r="6.21469" fill="#FF7BB2" fill-opacity="0.1"/>
<circle cx="416.182" cy="53.7571" r="6.21469" fill="#FF7BB2" fill-opacity="0.1"/>
<circle cx="378.894" cy="53.7571" r="6.21469" fill="#FF7BB2" fill-opacity="0.1"/>
<circle cx="397.538" cy="53.7571" r="6.21469" fill="#FF7BB2" fill-opacity="0.1"/>
<circle cx="360.25" cy="71.2712" r="6.21469" fill="#FF7BB2" fill-opacity="0.1"/>
<circle cx="416.182" cy="71.2712" r="6.21469" fill="#FF7BB2" fill-opacity="0.1"/>
<circle cx="378.894" cy="71.2712" r="6.21469" fill="#FF7BB2" fill-opacity="0.1"/>
<circle cx="397.538" cy="71.2712" r="6.21469" fill="#FF7BB2" fill-opacity="0.1"/>
<circle cx="360.25" cy="88.7853" r="6.21469" fill="#FF7BB2" fill-opacity="0.1"/>
<circle cx="416.182" cy="88.7853" r="6.21469" fill="#FF7BB2" fill-opacity="0.1"/>
<circle cx="378.894" cy="88.7853" r="6.21469" fill="#FF7BB2" fill-opacity="0.1"/>
<circle cx="397.538" cy="88.7853" r="6.21469" fill="#FF7BB2" fill-opacity="0.1"/>
<circle cx="136.179" cy="215.215" r="6.21469" fill="#FF7BB2" fill-opacity="0.1"/>
<circle cx="192.111" cy="215.215" r="6.21469" fill="#FF7BB2" fill-opacity="0.1"/>
<circle cx="154.823" cy="215.215" r="6.21469" fill="#FF7BB2" fill-opacity="0.1"/>
<circle cx="210.756" cy="215.215" r="6.21469" fill="#FF7BB2" fill-opacity="0.1"/>
<circle cx="173.467" cy="215.215" r="6.21469" fill="#FF7BB2" fill-opacity="0.1"/>
<circle cx="229.4" cy="215.215" r="6.21469" fill="#FF7BB2" fill-opacity="0.1"/>
<circle cx="136.179" cy="232.729" r="6.21469" fill="#FF7BB2" fill-opacity="0.1"/>
<circle cx="192.111" cy="232.729" r="6.21469" fill="#FF7BB2" fill-opacity="0.1"/>
<circle cx="154.823" cy="232.729" r="6.21469" fill="#FF7BB2" fill-opacity="0.1"/>
<circle cx="210.756" cy="232.729" r="6.21469" fill="#FF7BB2" fill-opacity="0.1"/>
<circle cx="173.467" cy="232.729" r="6.21469" fill="#FF7BB2" fill-opacity="0.1"/>
<circle cx="229.4" cy="232.729" r="6.21469" fill="#FF7BB2" fill-opacity="0.1"/>
<circle cx="136.179" cy="250.243" r="6.21469" fill="#FF7BB2" fill-opacity="0.1"/>
<circle cx="192.111" cy="250.243" r="6.21469" fill="#FF7BB2" fill-opacity="0.1"/>
<circle cx="154.823" cy="250.243" r="6.21469" fill="#FF7BB2" fill-opacity="0.1"/>
<circle cx="210.756" cy="250.243" r="6.21469" fill="#FF7BB2" fill-opacity="0.1"/>
<circle cx="173.467" cy="250.243" r="6.21469" fill="#FF7BB2" fill-opacity="0.1"/>
<circle cx="229.4" cy="250.243" r="6.21469" fill="#FF7BB2" fill-opacity="0.1"/>
<circle cx="136.179" cy="267.757" r="6.21469" fill="#FF7BB2" fill-opacity="0.1"/>
<circle cx="192.111" cy="267.757" r="6.21469" fill="#FF7BB2" fill-opacity="0.1"/>
<circle cx="154.823" cy="267.757" r="6.21469" fill="#FF7BB2" fill-opacity="0.1"/>
<circle cx="210.756" cy="267.757" r="6.21469" fill="#FF7BB2" fill-opacity="0.1"/>
<circle cx="173.467" cy="267.757" r="6.21469" fill="#FF7BB2" fill-opacity="0.1"/>
<circle cx="229.4" cy="267.757" r="6.21469" fill="#FF7BB2" fill-opacity="0.1"/>
<circle cx="136.179" cy="285.271" r="6.21469" fill="#FF7BB2" fill-opacity="0.1"/>
<circle cx="192.111" cy="285.271" r="6.21469" fill="#FF7BB2" fill-opacity="0.1"/>
<circle cx="154.823" cy="285.271" r="6.21469" fill="#FF7BB2" fill-opacity="0.1"/>
<circle cx="210.756" cy="285.271" r="6.21469" fill="#FF7BB2" fill-opacity="0.1"/>
<circle cx="173.467" cy="285.271" r="6.21469" fill="#FF7BB2" fill-opacity="0.1"/>
<circle cx="229.4" cy="285.271" r="6.21469" fill="#FF7BB2" fill-opacity="0.1"/>
<circle cx="136.179" cy="302.785" r="6.21469" fill="#FF7BB2" fill-opacity="0.1"/>
<circle cx="192.111" cy="302.785" r="6.21469" fill="#FF7BB2" fill-opacity="0.1"/>
<circle cx="154.823" cy="302.785" r="6.21469" fill="#FF7BB2" fill-opacity="0.1"/>
<circle cx="210.756" cy="302.785" r="6.21469" fill="#FF7BB2" fill-opacity="0.1"/>
<circle cx="173.467" cy="302.785" r="6.21469" fill="#FF7BB2" fill-opacity="0.1"/>
<circle cx="229.4" cy="302.785" r="6.21469" fill="#FF7BB2" fill-opacity="0.1"/>
<circle cx="360.215" cy="215.215" r="6.21469" fill="#FF7BB2" fill-opacity="0.1"/>
<circle cx="416.147" cy="215.215" r="6.21469" fill="#FF7BB2" fill-opacity="0.1"/>
<circle cx="378.859" cy="215.215" r="6.21469" fill="#FF7BB2" fill-opacity="0.1"/>
<circle cx="397.503" cy="215.215" r="6.21469" fill="#FF7BB2" fill-opacity="0.1"/>
<circle cx="360.215" cy="232.729" r="6.21469" fill="#FF7BB2" fill-opacity="0.1"/>
<circle cx="416.147" cy="232.729" r="6.21469" fill="#FF7BB2" fill-opacity="0.1"/>
<circle cx="378.859" cy="232.729" r="6.21469" fill="#FF7BB2" fill-opacity="0.1"/>
<circle cx="397.503" cy="232.729" r="6.21469" fill="#FF7BB2" fill-opacity="0.1"/>
<circle cx="360.215" cy="250.243" r="6.21469" fill="#FF7BB2" fill-opacity="0.1"/>
<circle cx="416.147" cy="250.243" r="6.21469" fill="#FF7BB2" fill-opacity="0.1"/>
<circle cx="378.859" cy="250.243" r="6.21469" fill="#FF7BB2" fill-opacity="0.1"/>
<circle cx="397.503" cy="250.243" r="6.21469" fill="#FF7BB2" fill-opacity="0.1"/>
<circle cx="360.215" cy="267.757" r="6.21469" fill="#FF7BB2" fill-opacity="0.1"/>
<circle cx="416.147" cy="267.757" r="6.21469" fill="#FF7BB2" fill-opacity="0.1"/>
<circle cx="378.859" cy="267.757" r="6.21469" fill="#FF7BB2" fill-opacity="0.1"/>
<circle cx="397.503" cy="267.757" r="6.21469" fill="#FF7BB2" fill-opacity="0.1"/>
<circle cx="360.215" cy="285.271" r="6.21469" fill="#FF7BB2" fill-opacity="0.1"/>
<circle cx="416.147" cy="285.271" r="6.21469" fill="#FF7BB2" fill-opacity="0.1"/>
<circle cx="378.859" cy="285.271" r="6.21469" fill="#FF7BB2" fill-opacity="0.1"/>
<circle cx="397.503" cy="285.271" r="6.21469" fill="#FF7BB2" fill-opacity="0.1"/>
<circle cx="360.215" cy="302.785" r="6.21469" fill="#FF7BB2" fill-opacity="0.1"/>
<circle cx="416.147" cy="302.785" r="6.21469" fill="#FF7BB2" fill-opacity="0.1"/>
<circle cx="378.859" cy="302.785" r="6.21469" fill="#FF7BB2" fill-opacity="0.1"/>
<circle cx="397.503" cy="302.785" r="6.21469" fill="#FF7BB2" fill-opacity="0.1"/>
<circle cx="5.47043" cy="1.48161" r="6.21469" fill="#FF7BB2" fill-opacity="0.1"/>
<circle cx="5.47043" cy="18.9957" r="6.21469" fill="#FF7BB2" fill-opacity="0.1"/>
<circle cx="5.47043" cy="36.5099" r="6.21469" fill="#FF7BB2" fill-opacity="0.1"/>
<circle cx="5.47043" cy="54.024" r="6.21469" fill="#FF7BB2" fill-opacity="0.1"/>
<circle cx="5.47043" cy="71.5381" r="6.21469" fill="#FF7BB2" fill-opacity="0.1"/>
<circle cx="5.47043" cy="89.0522" r="6.21469" fill="#FF7BB2" fill-opacity="0.1"/>
<circle cx="5.43503" cy="215.482" r="6.21469" fill="#FF7BB2" fill-opacity="0.1"/>
<circle cx="5.43503" cy="232.996" r="6.21469" fill="#FF7BB2" fill-opacity="0.1"/>
<circle cx="5.43503" cy="250.51" r="6.21469" fill="#FF7BB2" fill-opacity="0.1"/>
<circle cx="5.43503" cy="268.024" r="6.21469" fill="#FF7BB2" fill-opacity="0.1"/>
<circle cx="5.43503" cy="285.538" r="6.21469" fill="#FF7BB2" fill-opacity="0.1"/>
<circle cx="5.43503" cy="303.052" r="6.21469" fill="#FF7BB2" fill-opacity="0.1"/>
</g>
</svg>
