<svg width="51" height="52" viewBox="0 0 51 52" fill="none" xmlns="http://www.w3.org/2000/svg">
<path d="M44.625 39V32.5C44.625 32.026 44.4673 31.6367 44.1519 31.332C43.8364 31.0273 43.4629 30.875 43.0312 30.875H38.3496C38.0508 30.2995 37.7188 29.7409 37.3535 29.1992L39.6445 25.1367C39.8438 24.7643 39.8936 24.3581 39.7939 23.918C39.6943 23.4779 39.4453 23.1393 39.0469 22.9023L30.8789 18.0273C30.4805 17.8242 30.0737 17.7819 29.6587 17.9004C29.2437 18.0189 28.9199 18.2643 28.6875 18.6367L26.3965 22.8008C26.3301 22.8008 26.1973 22.7923 25.998 22.7754C25.7988 22.7585 25.6411 22.75 25.5249 22.75C25.4087 22.75 25.2427 22.7585 25.0269 22.7754C24.811 22.7923 24.6699 22.8008 24.6035 22.8008L22.3125 18.6367C22.0801 18.2643 21.7563 18.0189 21.3413 17.9004C20.9263 17.7819 20.5195 17.8242 20.1211 18.0273L11.9531 22.9023C11.5547 23.1393 11.3057 23.4779 11.2061 23.918C11.1064 24.3581 11.1562 24.7643 11.3555 25.1367L13.6465 29.1992C13.2812 29.7409 12.9658 30.2995 12.7002 30.875H7.96875C7.53711 30.875 7.16357 31.0273 6.84814 31.332C6.53271 31.6367 6.375 32.026 6.375 32.5V39C4.61523 39 3.11279 38.3652 1.86768 37.0957C0.622559 35.8262 0 34.2943 0 32.5V13C0 12.0859 0.307129 11.3158 0.921387 10.6895C1.53564 10.0632 2.29102 9.75 3.1875 9.75H27.0938L29.3848 5.43359C29.6172 4.82422 30.082 4.30794 30.7793 3.88477C31.4766 3.46159 32.207 3.25 32.9707 3.25H44.9238C45.7207 3.25 46.4678 3.46159 47.165 3.88477C47.8623 4.30794 48.3271 4.82422 48.5596 5.43359L51 9.75V32.5C51 34.2943 50.3774 35.8262 49.1323 37.0957C47.8872 38.3652 46.3848 39 44.625 39ZM2.29102 2.18359C2.52344 1.57422 2.98828 1.05794 3.68555 0.634766C4.38281 0.211589 5.11328 0 5.87695 0H17.8301C18.627 0 19.374 0.211589 20.0713 0.634766C20.7686 1.05794 21.25 1.57422 21.5156 2.18359L23.9062 6.5H0L2.29102 2.18359ZM11.1562 34.125H16.5352C16.9336 32.9401 17.5645 31.8568 18.4277 30.875L16.1367 26.6602C15.9043 26.2878 15.8462 25.89 15.9624 25.4668C16.0786 25.0436 16.3193 24.7135 16.6846 24.4766L19.2744 22.9023C19.6396 22.6992 20.0215 22.6569 20.4199 22.7754C20.8184 22.8939 21.1172 23.1393 21.3164 23.5117L23.707 27.7773C24.3711 27.6758 24.9687 27.625 25.5 27.625C26.0645 27.625 26.6621 27.6758 27.293 27.7773L29.6836 23.5117C29.8828 23.1393 30.1816 22.8939 30.5801 22.7754C30.9785 22.6569 31.3604 22.6992 31.7256 22.9023L34.3652 24.4766C34.6973 24.7135 34.9214 25.0436 35.0376 25.4668C35.1538 25.89 35.1123 26.2878 34.9131 26.6602L32.5723 30.875C33.4355 31.8568 34.0664 32.9401 34.4648 34.125H39.8438C40.2754 34.125 40.6489 34.2773 40.9644 34.582C41.2798 34.8867 41.4375 35.276 41.4375 35.75V39C41.4375 39.4401 41.2798 39.821 40.9644 40.1426C40.6489 40.4642 40.2754 40.625 39.8438 40.625H34.4648C34.0664 41.776 33.4355 42.8424 32.5723 43.8242L34.9131 48.0391C35.1123 48.4453 35.1538 48.8516 35.0376 49.2578C34.9214 49.6641 34.6973 49.9857 34.3652 50.2227L31.7256 51.7969C31.3604 52 30.9785 52.0508 30.5801 51.9492C30.1816 51.8477 29.8828 51.5938 29.6836 51.1875L27.293 46.9219C26.6621 47.0573 26.0728 47.125 25.5249 47.125C24.9771 47.125 24.3711 47.0573 23.707 46.9219L21.3164 51.1875C21.1172 51.5938 20.8184 51.8477 20.4199 51.9492C20.0215 52.0508 19.6396 52 19.2744 51.7969L16.6846 50.2227C16.3193 49.9857 16.0786 49.6641 15.9624 49.2578C15.8462 48.8516 15.9043 48.4453 16.1367 48.0391L18.4277 43.8242C17.5645 42.8424 16.9336 41.776 16.5352 40.625H11.1562C10.7246 40.625 10.3511 40.4642 10.0356 40.1426C9.72021 39.821 9.5625 39.4401 9.5625 39V35.75C9.5625 35.276 9.72021 34.8867 10.0356 34.582C10.3511 34.2773 10.7246 34.125 11.1562 34.125ZM25.5249 40.625C26.4048 40.625 27.1519 40.3034 27.7661 39.6602C28.3804 39.0169 28.6875 38.2467 28.6875 37.3496C28.6875 36.4525 28.3804 35.6908 27.7661 35.0645C27.1519 34.4382 26.4048 34.125 25.5249 34.125C24.645 34.125 23.8896 34.4382 23.2588 35.0645C22.6279 35.6908 22.3125 36.4525 22.3125 37.3496C22.3125 38.2467 22.6279 39.0169 23.2588 39.6602C23.8896 40.3034 24.645 40.625 25.5249 40.625Z" fill="white"/>
</svg>
