<svg width="39" height="39" viewBox="0 0 39 39" fill="none" xmlns="http://www.w3.org/2000/svg">
<path fill-rule="evenodd" clip-rule="evenodd" d="M2.14602 2.25468C3.54578 0.839948 5.49539 0 7.58333 0C9.67128 0 11.6209 0.839948 13.0207 2.25468C14.4143 3.66321 15.1667 5.5366 15.1667 7.45588V12.0441H23.8333V7.45588C23.8333 5.5366 24.5857 3.66321 25.9793 2.25468C27.3791 0.839948 29.3287 0 31.4167 0C33.5046 0 35.4542 0.839948 36.854 2.25468C38.2476 3.66321 39 5.5366 39 7.45588C39 9.37517 38.2476 11.2486 36.854 12.6571C35.4542 14.0718 33.5046 14.9118 31.4167 14.9118H27.0833V24.0882H31.4167C33.5046 24.0882 35.4542 24.9282 36.854 26.3429C38.2476 27.7514 39 29.6248 39 31.5441C39 33.4634 38.2476 35.3368 36.854 36.7453C35.4542 38.1601 33.5046 39 31.4167 39C29.3287 39 27.3791 38.1601 25.9793 36.7453C24.5857 35.3368 23.8333 33.4634 23.8333 31.5441V26.9559H15.1667V31.5441C15.1667 33.4634 14.4143 35.3368 13.0207 36.7453C11.6209 38.1601 9.67128 39 7.58333 39C5.49539 39 3.54578 38.1601 2.14602 36.7453C0.752388 35.3368 0 33.4634 0 31.5441C0 29.6248 0.752388 27.7514 2.14602 26.3429C3.54578 24.9282 5.49539 24.0882 7.58333 24.0882H11.9167V14.9118H7.58333C5.49539 14.9118 3.54578 14.0718 2.14602 12.6571C0.752388 11.2486 0 9.37517 0 7.45588C0 5.5366 0.752388 3.66321 2.14602 2.25468ZM11.9167 12.0441V7.45588C11.9167 6.18087 11.4136 4.99079 10.5724 4.14061C9.73732 3.29663 8.65588 2.86765 7.58333 2.86765C6.51078 2.86765 5.42934 3.29663 4.5943 4.14061C3.75312 4.99079 3.25 6.18087 3.25 7.45588C3.25 8.7309 3.75312 9.92098 4.5943 10.7712C5.42934 11.6151 6.51078 12.0441 7.58333 12.0441H11.9167ZM15.1667 14.9118V24.0882H23.8333V14.9118H15.1667ZM11.9167 26.9559H7.58333C6.51078 26.9559 5.42934 27.3849 4.5943 28.2288C3.75312 29.079 3.25 30.2691 3.25 31.5441C3.25 32.8191 3.75312 34.0092 4.5943 34.8594C5.42934 35.7034 6.51078 36.1324 7.58333 36.1324C8.65588 36.1324 9.73732 35.7034 10.5724 34.8594C11.4136 34.0092 11.9167 32.8191 11.9167 31.5441V26.9559ZM27.0833 26.9559V31.5441C27.0833 32.8191 27.5864 34.0092 28.4276 34.8594C29.2627 35.7034 30.3441 36.1324 31.4167 36.1324C32.4892 36.1324 33.5707 35.7034 34.4057 34.8594C35.2469 34.0092 35.75 32.8191 35.75 31.5441C35.75 30.2691 35.2469 29.079 34.4057 28.2288C33.5707 27.3849 32.4892 26.9559 31.4167 26.9559H27.0833ZM27.0833 12.0441H31.4167C32.4892 12.0441 33.5707 11.6151 34.4057 10.7712C35.2469 9.92098 35.75 8.7309 35.75 7.45588C35.75 6.18087 35.2469 4.99079 34.4057 4.14061C33.5707 3.29663 32.4892 2.86765 31.4167 2.86765C30.3441 2.86765 29.2627 3.29663 28.4276 4.14061C27.5864 4.99079 27.0833 6.18087 27.0833 7.45588V12.0441Z" fill="white"/>
</svg>
