<svg width="51" height="47" viewBox="0 0 51 47" fill="none" xmlns="http://www.w3.org/2000/svg">
<path d="M13.7068 35.8085L16.8942 31.7316L6.63343 23.3298L16.8942 14.928L13.7068 10.8511L0.957401 21.2913C0.658671 21.5359 0.41751 21.846 0.251781 22.1989C0.0860515 22.5518 0 22.9383 0 23.3298C0 23.7213 0.0860515 24.1078 0.251781 24.4607C0.41751 24.8136 0.658671 25.1237 0.957401 25.3683L13.7068 35.8085ZM37.2932 10.8511L34.1058 14.928L44.3666 23.3298L34.1058 31.7316L37.2932 35.8085L50.0426 25.3683C50.3413 25.1237 50.5825 24.8136 50.7482 24.4607C50.9139 24.1078 51 23.7213 51 23.3298C51 22.9383 50.9139 22.5518 50.7482 22.1989C50.5825 21.846 50.3413 21.5359 50.0426 21.2913L37.2932 10.8511Z" fill="white"/>
<path d="M32.5532 1.09853L23.0747 46.6596L18.4468 45.561L27.9253 0L32.5532 1.09853Z" fill="white"/>
</svg>
