<svg width="19" height="20" viewBox="0 0 19 20" fill="none" xmlns="http://www.w3.org/2000/svg">
<path d="M8.99994 0.00277955C7.39342 0.0212846 3.93953 0.273192 2.0077 1.96431C0.570721 3.32294 0.0689967 5.33163 0.0101911 7.81548C-0.038605 10.2904 -0.0974106 14.9381 4.59765 16.2036V18.1311C4.59765 18.1311 4.56825 18.9024 5.1025 19.0606C5.76062 19.2594 6.13535 18.666 6.76094 18.0285L7.92767 16.7695C11.1401 17.0244 13.6005 16.437 13.8839 16.3499C14.5358 16.1511 18.2074 15.7034 18.8073 11.0551C19.4229 6.2545 18.5077 3.22982 16.8555 1.86164H16.8455C16.3469 1.42349 14.3431 0.0302386 9.86638 0.0147183C9.86638 0.0147183 9.53419 -0.00677143 8.99994 0.00218262V0.00277955ZM9.05499 1.35245C9.51104 1.34947 9.78818 1.36797 9.78818 1.36797C13.5774 1.37752 15.386 2.46574 15.8126 2.83226C17.2039 3.97002 17.9209 6.69682 17.396 10.7047C16.8974 14.5907 13.9196 14.8366 13.3684 15.0044C13.1338 15.076 10.9668 15.5858 8.23671 15.4181C8.23671 15.4181 6.20354 17.7593 5.56794 18.3622C5.46722 18.4678 5.34961 18.4989 5.27454 18.4833C5.16694 18.4583 5.13441 18.3311 5.14066 18.1568L5.16006 14.9578C1.17817 13.9072 1.41277 9.94296 1.45531 7.87219C1.5041 5.80142 1.91136 4.10731 3.12376 2.96C4.75592 1.55183 7.6887 1.362 9.05374 1.35245H9.05499ZM9.35527 3.42263C9.3225 3.42231 9.28998 3.42819 9.2596 3.43992C9.22922 3.45165 9.20158 3.46901 9.17826 3.49098C9.15494 3.51295 9.13641 3.53911 9.12373 3.56795C9.11106 3.59679 9.10449 3.62774 9.10441 3.65901C9.10441 3.79273 9.21827 3.89839 9.35527 3.89839C9.97555 3.88713 10.592 3.99316 11.1691 4.21036C11.7463 4.42756 12.2726 4.75164 12.7178 5.16389C13.6268 6.00617 14.0697 7.13796 14.0866 8.61777C14.0866 8.7485 14.1973 8.85714 14.3375 8.85714V8.84759C14.4035 8.84775 14.467 8.82299 14.5139 8.77871C14.5609 8.73443 14.5877 8.67422 14.5883 8.6112C14.6187 7.91466 14.5003 7.21951 14.2404 6.56799C13.9805 5.91646 13.5844 5.32218 13.0763 4.82125C12.086 3.89779 10.831 3.42203 9.35527 3.42203V3.42263ZM6.05778 3.97002C5.8807 3.94533 5.70011 3.97925 5.54605 4.06613H5.53291C5.17524 4.26618 4.85303 4.51903 4.57826 4.81528C4.34992 5.06719 4.22605 5.32208 4.19352 5.56742C4.17413 5.71367 4.18726 5.85992 4.23293 5.9996L4.2492 6.00915C4.50631 6.73025 4.84226 7.42389 5.25265 8.07694C5.78128 8.99441 6.43185 9.8429 7.18822 10.6014L7.21074 10.6324L7.2464 10.6575L7.26892 10.6826L7.2952 10.7041C8.09297 11.4279 8.98435 12.0516 9.94771 12.5599C11.0487 13.1318 11.7169 13.4022 12.1179 13.5144V13.5204C12.2355 13.5544 12.3425 13.57 12.4501 13.57C12.7918 13.5461 13.1154 13.4137 13.3691 13.1939C13.6781 12.9316 13.9402 12.6229 14.1448 12.28V12.274C14.3369 11.929 14.2718 11.6024 13.9947 11.3816C13.4396 10.9187 12.8395 10.5075 12.2023 10.1537C11.7757 9.93282 11.3421 10.0665 11.1664 10.2904L10.7916 10.7411C10.5996 10.9649 10.2505 10.9339 10.2505 10.9339L10.2405 10.9398C7.6374 10.3053 6.94299 7.79041 6.94299 7.79041C6.94299 7.79041 6.91046 7.44837 7.15131 7.27406L7.62051 6.91351C7.84509 6.73921 8.00149 6.32613 7.76064 5.91842C7.39242 5.30964 6.96245 4.73681 6.47693 4.2082C6.37078 4.08357 6.22187 3.99878 6.05653 3.96883L6.05778 3.97002ZM9.78818 4.67918C9.45599 4.67918 9.45599 5.15792 9.79131 5.15792C10.2044 5.16432 10.6121 5.24832 10.9911 5.40513C11.3701 5.56195 11.713 5.7885 12.0003 6.07183C12.2623 6.34762 12.4636 6.67079 12.5924 7.02218C12.7211 7.37357 12.7746 7.74605 12.7497 8.11753C12.7509 8.1804 12.7778 8.24035 12.8247 8.28453C12.8715 8.32871 12.9347 8.35362 13.0006 8.35392L13.0106 8.36646C13.077 8.36599 13.1405 8.34062 13.1874 8.29583C13.2344 8.25104 13.261 8.19042 13.2615 8.12708C13.284 7.17855 12.9749 6.38284 12.3687 5.74531C11.7594 5.10778 10.9092 4.75022 9.82384 4.67918H9.78818ZM10.1992 5.96617C9.85699 5.95662 9.84386 6.44492 10.1829 6.45447C11.0075 6.49506 11.4078 6.89262 11.4604 7.71042C11.4615 7.7725 11.4881 7.83168 11.5344 7.87531C11.5807 7.91893 11.6431 7.94352 11.7081 7.94382H11.7181C11.7516 7.94246 11.7844 7.93474 11.8147 7.92114C11.845 7.90753 11.8721 7.8883 11.8946 7.86457C11.917 7.84084 11.9342 7.81309 11.9453 7.78294C11.9564 7.75278 11.961 7.72082 11.959 7.68893C11.9002 6.6228 11.2908 6.02229 10.2092 5.96677H10.1992V5.96617Z" fill="black"/>
</svg>
