<?xml version="1.0" encoding="utf-8"?><svg width="13" height="13" fill="none" xmlns="http://www.w3.org/2000/svg" viewBox="0 0 13 13"><path fill-rule="evenodd" clip-rule="evenodd" d="M6.5 12.188A5.688 5.688 0 106.5.812a5.688 5.688 0 000 11.376zm0 .812a6.5 6.5 0 100-13 6.5 6.5 0 000 13z" fill="#40B3E0"/><path fill-rule="evenodd" clip-rule="evenodd" d="M6.212 9.225a.406.406 0 010-.575L8.363 6.5l-2.15-2.15a.407.407 0 01.575-.575l2.437 2.437a.406.406 0 010 .576L6.788 9.225a.406.406 0 01-.576 0z" fill="#40B3E0"/><path fill-rule="evenodd" clip-rule="evenodd" d="M3.656 6.5a.406.406 0 01.406-.406h4.063a.406.406 0 110 .812H4.062a.406.406 0 01-.406-.406z" fill="#40B3E0"/></svg>