<?xml version="1.0" encoding="utf-8"?><svg width="51" height="52" fill="none" xmlns="http://www.w3.org/2000/svg" viewBox="0 0 51 52"><path d="M44.625 39v-6.5c0-.474-.158-.863-.473-1.168a1.559 1.559 0 00-1.12-.457H38.35a17.033 17.033 0 00-.997-1.676l2.291-4.062c.2-.373.25-.779.15-1.219-.1-.44-.349-.779-.747-1.016l-8.168-4.875a1.62 1.62 0 00-1.22-.127 1.642 1.642 0 00-.971.737L26.396 22.8c-.067 0-.2-.009-.399-.026a5.918 5.918 0 00-.473-.025c-.116 0-.282.009-.498.025a7.042 7.042 0 01-.424.026l-2.29-4.164a1.642 1.642 0 00-.972-.737 1.62 1.62 0 00-1.22.127l-8.168 4.875a1.535 1.535 0 00-.747 1.016c-.1.44-.05.846.15 1.219l2.29 4.062c-.365.542-.68 1.1-.946 1.676H7.97c-.432 0-.805.152-1.12.457-.316.305-.474.694-.474 1.168V39c-1.76 0-3.262-.635-4.507-1.904C.623 35.826 0 34.294 0 32.5V13c0-.914.307-1.684.921-2.31.615-.627 1.37-.94 2.266-.94h23.907l2.29-4.316c.233-.61.698-1.126 1.395-1.55.698-.422 1.428-.634 2.192-.634h11.953c.797 0 1.544.212 2.241.635.697.423 1.162.94 1.395 1.549L51 9.75V32.5c0 1.794-.623 3.326-1.868 4.596S46.385 39 44.625 39zM2.291 2.184c.232-.61.697-1.126 1.395-1.55C4.383.213 5.113 0 5.877 0H17.83c.797 0 1.544.212 2.241.635.698.423 1.179.94 1.445 1.549l2.39 4.316H0l2.291-4.316zm8.865 31.941h5.38a9.45 9.45 0 011.892-3.25l-2.291-4.215a1.442 1.442 0 01-.175-1.193c.117-.423.357-.753.723-.99l2.59-1.575a1.43 1.43 0 011.145-.127c.398.119.697.364.896.737l2.391 4.265a11.982 11.982 0 011.793-.152c.564 0 1.162.05 1.793.152l2.39-4.265c.2-.373.499-.618.897-.737a1.43 1.43 0 011.146.127l2.64 1.575c.331.236.555.567.672.99.116.423.074.82-.125 1.193l-2.34 4.215a9.45 9.45 0 011.892 3.25h5.379c.431 0 .805.152 1.12.457.316.305.474.694.474 1.168V39c0 .44-.158.821-.474 1.143a1.517 1.517 0 01-1.12.482h-5.38c-.398 1.151-1.029 2.217-1.892 3.2l2.341 4.214c.2.406.24.813.125 1.219-.117.406-.34.728-.673.965l-2.64 1.574a1.51 1.51 0 01-1.145.152c-.398-.101-.697-.355-.896-.761l-2.391-4.266c-.63.135-1.22.203-1.768.203a9.165 9.165 0 01-1.818-.203l-2.39 4.266c-.2.406-.499.66-.897.761a1.51 1.51 0 01-1.146-.152l-2.59-1.574a1.666 1.666 0 01-.722-.965c-.116-.406-.058-.813.175-1.219l2.29-4.215c-.863-.982-1.493-2.048-1.892-3.199h-5.379c-.431 0-.805-.16-1.12-.482A1.577 1.577 0 019.563 39v-3.25c0-.474.157-.863.473-1.168a1.559 1.559 0 011.12-.457zm14.369 6.5c.88 0 1.627-.322 2.241-.965a3.228 3.228 0 00.922-2.31c0-.898-.308-1.66-.922-2.285a3.021 3.021 0 00-2.241-.94c-.88 0-1.635.313-2.266.94-.631.626-.947 1.388-.947 2.285 0 .897.316 1.667.947 2.31.63.643 1.386.965 2.266.965z" fill="#fff"/></svg>