<?xml version="1.0" encoding="utf-8"?><svg width="51" height="47" fill="none" xmlns="http://www.w3.org/2000/svg" viewBox="0 0 51 47"><path d="M13.707 35.809l3.187-4.077-10.26-8.402 10.26-8.402-3.187-4.077-12.75 10.44c-.298.245-.54.555-.705.908a2.661 2.661 0 000 2.262c.166.353.407.663.705.907l12.75 10.44zM37.293 10.85l-3.187 4.077 10.26 8.402-10.26 8.402 3.187 4.077 12.75-10.44c.298-.245.54-.555.705-.908a2.662 2.662 0 000-2.262 2.601 2.601 0 00-.705-.908l-12.75-10.44zM32.553 1.099l-9.478 45.56-4.628-1.098L27.925 0l4.628 1.099z" fill="#fff"/></svg>