<?xml version="1.0" encoding="utf-8"?><svg viewBox="0 0 411 411" xmlns="http://www.w3.org/2000/svg" xmlns:xlink="http://www.w3.org/1999/xlink"><style>:root>svg{display:none}:root>svg:target{display:block}</style><svg fill="none" viewBox="0 0 13 13" id="arrow" xmlns="http://www.w3.org/2000/svg"><path fill-rule="evenodd" clip-rule="evenodd" d="M6.5 12.188A5.688 5.688 0 106.5.812a5.688 5.688 0 000 11.376zm0 .812a6.5 6.5 0 100-13 6.5 6.5 0 000 13z" fill="#40B3E0"/><path fill-rule="evenodd" clip-rule="evenodd" d="M6.212 9.225a.406.406 0 010-.575L8.363 6.5l-2.15-2.15a.407.407 0 01.575-.575l2.437 2.437a.406.406 0 010 .576L6.788 9.225a.406.406 0 01-.576 0z" fill="#40B3E0"/><path fill-rule="evenodd" clip-rule="evenodd" d="M3.656 6.5a.406.406 0 01.406-.406h4.063a.406.406 0 110 .812H4.062a.406.406 0 01-.406-.406z" fill="#40B3E0"/></svg><svg fill="none" viewBox="0 0 45 45" id="arrow_fill" xmlns="http://www.w3.org/2000/svg"><path fill-rule="evenodd" clip-rule="evenodd" d="M45 22.5a22.5 22.5 0 11-45 0 22.5 22.5 0 0145 0zm-23.496 7.442a1.408 1.408 0 101.992 1.991l8.437-8.437a1.406 1.406 0 000-1.992l-8.437-8.437a1.405 1.405 0 00-1.992 0 1.405 1.405 0 000 1.991l6.039 6.036h-13.48a1.406 1.406 0 100 2.812h13.48l-6.039 6.036z" fill="#40B3E0"/></svg><svg fill="none" viewBox="0 0 411 411" id="big_circle" xmlns="http://www.w3.org/2000/svg"><mask id="ca" maskUnits="userSpaceOnUse" x="0" y="0" width="411" height="411"><path fill-rule="evenodd" clip-rule="evenodd" d="M205.5 411C318.995 411 411 318.995 411 205.5S318.995 0 205.5 0 0 92.005 0 205.5 92.005 411 205.5 411zm0-112c51.639 0 93.5-41.861 93.5-93.5S257.139 112 205.5 112 112 153.861 112 205.5s41.861 93.5 93.5 93.5z" fill="#C4C4C4"/></mask><g mask="url(#ca)" fill="#FF7BB2" fill-opacity=".1"><circle cx="5.47" cy="108.482" r="6.215"/><circle cx="5.47" cy="125.996" r="6.215"/><circle cx="5.47" cy="143.51" r="6.215"/><circle cx="5.47" cy="161.024" r="6.215"/><circle cx="5.47" cy="178.538" r="6.215"/><circle cx="5.47" cy="196.052" r="6.215"/><circle cx="5.435" cy="322.482" r="6.215"/><circle cx="5.435" cy="339.996" r="6.215"/><circle cx="5.435" cy="357.51" r="6.215"/><circle cx="5.435" cy="375.024" r="6.215"/><circle cx="5.435" cy="392.538" r="6.215"/><circle cx="5.435" cy="410.052" r="6.215"/><circle cx="24.215" cy="108.215" r="6.215"/><circle cx="80.147" cy="108.215" r="6.215"/><circle cx="42.859" cy="108.215" r="6.215"/><circle cx="98.791" cy="108.215" r="6.215"/><circle cx="61.503" cy="108.215" r="6.215"/><circle cx="117.435" cy="108.215" r="6.215"/><circle cx="24.215" cy="125.729" r="6.215"/><circle cx="80.147" cy="125.729" r="6.215"/><circle cx="42.859" cy="125.729" r="6.215"/><circle cx="98.791" cy="125.729" r="6.215"/><circle cx="61.503" cy="125.729" r="6.215"/><circle cx="117.435" cy="125.729" r="6.215"/><circle cx="24.215" cy="143.243" r="6.215"/><circle cx="80.147" cy="143.243" r="6.215"/><circle cx="42.859" cy="143.243" r="6.215"/><circle cx="98.791" cy="143.243" r="6.215"/><circle cx="61.503" cy="143.243" r="6.215"/><circle cx="117.435" cy="143.243" r="6.215"/><circle cx="24.215" cy="160.757" r="6.215"/><circle cx="80.147" cy="160.757" r="6.215"/><circle cx="42.859" cy="160.757" r="6.215"/><circle cx="98.791" cy="160.757" r="6.215"/><circle cx="61.503" cy="160.757" r="6.215"/><circle cx="117.435" cy="160.757" r="6.215"/><circle cx="24.215" cy="178.271" r="6.215"/><circle cx="80.147" cy="178.271" r="6.215"/><circle cx="42.859" cy="178.271" r="6.215"/><circle cx="98.791" cy="178.271" r="6.215"/><circle cx="61.503" cy="178.271" r="6.215"/><circle cx="117.435" cy="178.271" r="6.215"/><circle cx="24.215" cy="195.785" r="6.215"/><circle cx="80.147" cy="195.785" r="6.215"/><circle cx="42.859" cy="195.785" r="6.215"/><circle cx="98.791" cy="195.785" r="6.215"/><circle cx="61.503" cy="195.785" r="6.215"/><circle cx="117.435" cy="195.785" r="6.215"/><circle cx="248.25" cy="108.215" r="6.215"/><circle cx="304.182" cy="108.215" r="6.215"/><circle cx="266.894" cy="108.215" r="6.215"/><circle cx="322.826" cy="108.215" r="6.215"/><circle cx="285.538" cy="108.215" r="6.215"/><circle cx="341.47" cy="108.215" r="6.215"/><circle cx="248.25" cy="125.729" r="6.215"/><circle cx="304.182" cy="125.729" r="6.215"/><circle cx="266.894" cy="125.729" r="6.215"/><circle cx="322.826" cy="125.729" r="6.215"/><circle cx="285.538" cy="125.729" r="6.215"/><circle cx="341.47" cy="125.729" r="6.215"/><circle cx="248.25" cy="143.243" r="6.215"/><circle cx="304.182" cy="143.243" r="6.215"/><circle cx="266.894" cy="143.243" r="6.215"/><circle cx="322.826" cy="143.243" r="6.215"/><circle cx="285.538" cy="143.243" r="6.215"/><circle cx="341.47" cy="143.243" r="6.215"/><circle cx="248.25" cy="160.757" r="6.215"/><circle cx="304.182" cy="160.757" r="6.215"/><circle cx="266.894" cy="160.757" r="6.215"/><circle cx="322.826" cy="160.757" r="6.215"/><circle cx="285.538" cy="160.757" r="6.215"/><circle cx="341.47" cy="160.757" r="6.215"/><circle cx="248.25" cy="178.271" r="6.215"/><circle cx="304.182" cy="178.271" r="6.215"/><circle cx="266.894" cy="178.271" r="6.215"/><circle cx="322.826" cy="178.271" r="6.215"/><circle cx="285.538" cy="178.271" r="6.215"/><circle cx="341.47" cy="178.271" r="6.215"/><circle cx="248.25" cy="195.785" r="6.215"/><circle cx="304.182" cy="195.785" r="6.215"/><circle cx="266.894" cy="195.785" r="6.215"/><circle cx="322.826" cy="195.785" r="6.215"/><circle cx="285.538" cy="195.785" r="6.215"/><circle cx="341.47" cy="195.785" r="6.215"/><circle cx="24.179" cy="322.215" r="6.215"/><circle cx="80.112" cy="322.215" r="6.215"/><circle cx="42.823" cy="322.215" r="6.215"/><circle cx="98.756" cy="322.215" r="6.215"/><circle cx="61.467" cy="322.215" r="6.215"/><circle cx="117.4" cy="322.215" r="6.215"/><circle cx="24.179" cy="339.729" r="6.215"/><circle cx="80.112" cy="339.729" r="6.215"/><circle cx="42.823" cy="339.729" r="6.215"/><circle cx="98.756" cy="339.729" r="6.215"/><circle cx="61.467" cy="339.729" r="6.215"/><circle cx="117.4" cy="339.729" r="6.215"/><circle cx="24.179" cy="357.243" r="6.215"/><circle cx="80.112" cy="357.243" r="6.215"/><circle cx="42.823" cy="357.243" r="6.215"/><circle cx="98.756" cy="357.243" r="6.215"/><circle cx="61.467" cy="357.243" r="6.215"/><circle cx="117.4" cy="357.243" r="6.215"/><circle cx="24.179" cy="374.757" r="6.215"/><circle cx="80.112" cy="374.757" r="6.215"/><circle cx="42.823" cy="374.757" r="6.215"/><circle cx="98.756" cy="374.757" r="6.215"/><circle cx="61.467" cy="374.757" r="6.215"/><circle cx="117.4" cy="374.757" r="6.215"/><circle cx="24.179" cy="392.271" r="6.215"/><circle cx="80.112" cy="392.271" r="6.215"/><circle cx="42.823" cy="392.271" r="6.215"/><circle cx="98.756" cy="392.271" r="6.215"/><circle cx="61.467" cy="392.271" r="6.215"/><circle cx="117.4" cy="392.271" r="6.215"/><circle cx="24.179" cy="409.785" r="6.215"/><circle cx="80.112" cy="409.785" r="6.215"/><circle cx="42.823" cy="409.785" r="6.215"/><circle cx="98.756" cy="409.785" r="6.215"/><circle cx="61.467" cy="409.785" r="6.215"/><circle cx="117.4" cy="409.785" r="6.215"/><circle cx="248.215" cy="322.215" r="6.215"/><circle cx="304.147" cy="322.215" r="6.215"/><circle cx="266.859" cy="322.215" r="6.215"/><circle cx="322.791" cy="322.215" r="6.215"/><circle cx="285.503" cy="322.215" r="6.215"/><circle cx="341.435" cy="322.215" r="6.215"/><circle cx="248.215" cy="339.729" r="6.215"/><circle cx="304.147" cy="339.729" r="6.215"/><circle cx="266.859" cy="339.729" r="6.215"/><circle cx="322.791" cy="339.729" r="6.215"/><circle cx="285.503" cy="339.729" r="6.215"/><circle cx="341.435" cy="339.729" r="6.215"/><circle cx="248.215" cy="357.243" r="6.215"/><circle cx="304.147" cy="357.243" r="6.215"/><circle cx="266.859" cy="357.243" r="6.215"/><circle cx="322.791" cy="357.243" r="6.215"/><circle cx="285.503" cy="357.243" r="6.215"/><circle cx="341.435" cy="357.243" r="6.215"/><circle cx="248.215" cy="374.757" r="6.215"/><circle cx="304.147" cy="374.757" r="6.215"/><circle cx="266.859" cy="374.757" r="6.215"/><circle cx="322.791" cy="374.757" r="6.215"/><circle cx="285.503" cy="374.757" r="6.215"/><circle cx="341.435" cy="374.757" r="6.215"/><circle cx="248.215" cy="392.271" r="6.215"/><circle cx="304.147" cy="392.271" r="6.215"/><circle cx="266.859" cy="392.271" r="6.215"/><circle cx="322.791" cy="392.271" r="6.215"/><circle cx="285.503" cy="392.271" r="6.215"/><circle cx="341.435" cy="392.271" r="6.215"/><circle cx="248.215" cy="409.785" r="6.215"/><circle cx="304.147" cy="409.785" r="6.215"/><circle cx="266.859" cy="409.785" r="6.215"/><circle cx="322.791" cy="409.785" r="6.215"/><circle cx="285.503" cy="409.785" r="6.215"/><circle cx="341.435" cy="409.785" r="6.215"/><circle cx="136.215" cy="108.215" r="6.215"/><circle cx="192.147" cy="108.215" r="6.215"/><circle cx="154.859" cy="108.215" r="6.215"/><circle cx="210.791" cy="108.215" r="6.215"/><circle cx="173.503" cy="108.215" r="6.215"/><circle cx="229.435" cy="108.215" r="6.215"/><circle cx="136.215" cy="125.729" r="6.215"/><circle cx="192.147" cy="125.729" r="6.215"/><circle cx="154.859" cy="125.729" r="6.215"/><circle cx="210.791" cy="125.729" r="6.215"/><circle cx="173.503" cy="125.729" r="6.215"/><circle cx="229.435" cy="125.729" r="6.215"/><circle cx="136.215" cy="143.243" r="6.215"/><circle cx="192.147" cy="143.243" r="6.215"/><circle cx="154.859" cy="143.243" r="6.215"/><circle cx="210.791" cy="143.243" r="6.215"/><circle cx="173.503" cy="143.243" r="6.215"/><circle cx="229.435" cy="143.243" r="6.215"/><circle cx="136.215" cy="160.757" r="6.215"/><circle cx="192.147" cy="160.757" r="6.215"/><circle cx="154.859" cy="160.757" r="6.215"/><circle cx="210.791" cy="160.757" r="6.215"/><circle cx="173.503" cy="160.757" r="6.215"/><circle cx="229.435" cy="160.757" r="6.215"/><circle cx="136.215" cy="178.271" r="6.215"/><circle cx="192.147" cy="178.271" r="6.215"/><circle cx="154.859" cy="178.271" r="6.215"/><circle cx="210.791" cy="178.271" r="6.215"/><circle cx="173.503" cy="178.271" r="6.215"/><circle cx="229.435" cy="178.271" r="6.215"/><circle cx="136.215" cy="195.785" r="6.215"/><circle cx="192.147" cy="195.785" r="6.215"/><circle cx="154.859" cy="195.785" r="6.215"/><circle cx="210.791" cy="195.785" r="6.215"/><circle cx="173.503" cy="195.785" r="6.215"/><circle cx="229.435" cy="195.785" r="6.215"/><circle cx="360.25" cy="108.215" r="6.215"/><circle cx="416.182" cy="108.215" r="6.215"/><circle cx="378.894" cy="108.215" r="6.215"/><circle cx="397.538" cy="108.215" r="6.215"/><circle cx="360.25" cy="125.729" r="6.215"/><circle cx="416.182" cy="125.729" r="6.215"/><circle cx="378.894" cy="125.729" r="6.215"/><circle cx="397.538" cy="125.729" r="6.215"/><circle cx="360.25" cy="143.243" r="6.215"/><circle cx="416.182" cy="143.243" r="6.215"/><circle cx="378.894" cy="143.243" r="6.215"/><circle cx="397.538" cy="143.243" r="6.215"/><circle cx="360.25" cy="160.757" r="6.215"/><circle cx="416.182" cy="160.757" r="6.215"/><circle cx="378.894" cy="160.757" r="6.215"/><circle cx="397.538" cy="160.757" r="6.215"/><circle cx="360.25" cy="178.271" r="6.215"/><circle cx="416.182" cy="178.271" r="6.215"/><circle cx="378.894" cy="178.271" r="6.215"/><circle cx="397.538" cy="178.271" r="6.215"/><circle cx="360.25" cy="195.785" r="6.215"/><circle cx="416.182" cy="195.785" r="6.215"/><circle cx="378.894" cy="195.785" r="6.215"/><circle cx="397.538" cy="195.785" r="6.215"/><circle cx="136.179" cy="322.215" r="6.215"/><circle cx="192.111" cy="322.215" r="6.215"/><circle cx="154.823" cy="322.215" r="6.215"/><circle cx="210.756" cy="322.215" r="6.215"/><circle cx="173.467" cy="322.215" r="6.215"/><circle cx="229.4" cy="322.215" r="6.215"/><circle cx="136.179" cy="339.729" r="6.215"/><circle cx="192.111" cy="339.729" r="6.215"/><circle cx="154.823" cy="339.729" r="6.215"/><circle cx="210.756" cy="339.729" r="6.215"/><circle cx="173.467" cy="339.729" r="6.215"/><circle cx="229.4" cy="339.729" r="6.215"/><circle cx="136.179" cy="357.243" r="6.215"/><circle cx="192.111" cy="357.243" r="6.215"/><circle cx="154.823" cy="357.243" r="6.215"/><circle cx="210.756" cy="357.243" r="6.215"/><circle cx="173.467" cy="357.243" r="6.215"/><circle cx="229.4" cy="357.243" r="6.215"/><circle cx="136.179" cy="374.757" r="6.215"/><circle cx="192.111" cy="374.757" r="6.215"/><circle cx="154.823" cy="374.757" r="6.215"/><circle cx="210.756" cy="374.757" r="6.215"/><circle cx="173.467" cy="374.757" r="6.215"/><circle cx="229.4" cy="374.757" r="6.215"/><circle cx="136.179" cy="392.271" r="6.215"/><circle cx="192.111" cy="392.271" r="6.215"/><circle cx="154.823" cy="392.271" r="6.215"/><circle cx="210.756" cy="392.271" r="6.215"/><circle cx="173.467" cy="392.271" r="6.215"/><circle cx="229.4" cy="392.271" r="6.215"/><circle cx="136.179" cy="409.785" r="6.215"/><circle cx="192.111" cy="409.785" r="6.215"/><circle cx="154.823" cy="409.785" r="6.215"/><circle cx="210.756" cy="409.785" r="6.215"/><circle cx="173.467" cy="409.785" r="6.215"/><circle cx="229.4" cy="409.785" r="6.215"/><circle cx="360.215" cy="322.215" r="6.215"/><circle cx="416.147" cy="322.215" r="6.215"/><circle cx="378.859" cy="322.215" r="6.215"/><circle cx="397.503" cy="322.215" r="6.215"/><circle cx="360.215" cy="339.729" r="6.215"/><circle cx="416.147" cy="339.729" r="6.215"/><circle cx="378.859" cy="339.729" r="6.215"/><circle cx="397.503" cy="339.729" r="6.215"/><circle cx="360.215" cy="357.243" r="6.215"/><circle cx="416.147" cy="357.243" r="6.215"/><circle cx="378.859" cy="357.243" r="6.215"/><circle cx="397.503" cy="357.243" r="6.215"/><circle cx="360.215" cy="374.757" r="6.215"/><circle cx="416.147" cy="374.757" r="6.215"/><circle cx="378.859" cy="374.757" r="6.215"/><circle cx="397.503" cy="374.757" r="6.215"/><circle cx="360.215" cy="392.271" r="6.215"/><circle cx="416.147" cy="392.271" r="6.215"/><circle cx="378.859" cy="392.271" r="6.215"/><circle cx="397.503" cy="392.271" r="6.215"/><circle cx="360.215" cy="409.785" r="6.215"/><circle cx="416.147" cy="409.785" r="6.215"/><circle cx="378.859" cy="409.785" r="6.215"/><circle cx="397.503" cy="409.785" r="6.215"/><circle cx="24.215" cy="1.215" r="6.215"/><circle cx="80.147" cy="1.215" r="6.215"/><circle cx="42.859" cy="1.215" r="6.215"/><circle cx="98.791" cy="1.215" r="6.215"/><circle cx="61.503" cy="1.215" r="6.215"/><circle cx="117.435" cy="1.215" r="6.215"/><circle cx="24.215" cy="18.729" r="6.215"/><circle cx="80.147" cy="18.729" r="6.215"/><circle cx="42.859" cy="18.729" r="6.215"/><circle cx="98.791" cy="18.729" r="6.215"/><circle cx="61.503" cy="18.729" r="6.215"/><circle cx="117.435" cy="18.729" r="6.215"/><circle cx="24.215" cy="36.243" r="6.215"/><circle cx="80.147" cy="36.243" r="6.215"/><circle cx="42.859" cy="36.243" r="6.215"/><circle cx="98.791" cy="36.243" r="6.215"/><circle cx="61.503" cy="36.243" r="6.215"/><circle cx="117.435" cy="36.243" r="6.215"/><circle cx="24.215" cy="53.757" r="6.215"/><circle cx="80.147" cy="53.757" r="6.215"/><circle cx="42.859" cy="53.757" r="6.215"/><circle cx="98.791" cy="53.757" r="6.215"/><circle cx="61.503" cy="53.757" r="6.215"/><circle cx="117.435" cy="53.757" r="6.215"/><circle cx="24.215" cy="71.271" r="6.215"/><circle cx="80.147" cy="71.271" r="6.215"/><circle cx="42.859" cy="71.271" r="6.215"/><circle cx="98.791" cy="71.271" r="6.215"/><circle cx="61.503" cy="71.271" r="6.215"/><circle cx="117.435" cy="71.271" r="6.215"/><circle cx="24.215" cy="88.785" r="6.215"/><circle cx="80.147" cy="88.785" r="6.215"/><circle cx="42.859" cy="88.785" r="6.215"/><circle cx="98.791" cy="88.785" r="6.215"/><circle cx="61.503" cy="88.785" r="6.215"/><circle cx="117.435" cy="88.785" r="6.215"/><circle cx="248.25" cy="1.215" r="6.215"/><circle cx="304.182" cy="1.215" r="6.215"/><circle cx="266.894" cy="1.215" r="6.215"/><circle cx="322.826" cy="1.215" r="6.215"/><circle cx="285.538" cy="1.215" r="6.215"/><circle cx="341.47" cy="1.215" r="6.215"/><circle cx="248.25" cy="18.729" r="6.215"/><circle cx="304.182" cy="18.729" r="6.215"/><circle cx="266.894" cy="18.729" r="6.215"/><circle cx="322.826" cy="18.729" r="6.215"/><circle cx="285.538" cy="18.729" r="6.215"/><circle cx="341.47" cy="18.729" r="6.215"/><circle cx="248.25" cy="36.243" r="6.215"/><circle cx="304.182" cy="36.243" r="6.215"/><circle cx="266.894" cy="36.243" r="6.215"/><circle cx="322.826" cy="36.243" r="6.215"/><circle cx="285.538" cy="36.243" r="6.215"/><circle cx="341.47" cy="36.243" r="6.215"/><circle cx="248.25" cy="53.757" r="6.215"/><circle cx="304.182" cy="53.757" r="6.215"/><circle cx="266.894" cy="53.757" r="6.215"/><circle cx="322.826" cy="53.757" r="6.215"/><circle cx="285.538" cy="53.757" r="6.215"/><circle cx="341.47" cy="53.757" r="6.215"/><circle cx="248.25" cy="71.271" r="6.215"/><circle cx="304.182" cy="71.271" r="6.215"/><circle cx="266.894" cy="71.271" r="6.215"/><circle cx="322.826" cy="71.271" r="6.215"/><circle cx="285.538" cy="71.271" r="6.215"/><circle cx="341.47" cy="71.271" r="6.215"/><circle cx="248.25" cy="88.785" r="6.215"/><circle cx="304.182" cy="88.785" r="6.215"/><circle cx="266.894" cy="88.785" r="6.215"/><circle cx="322.826" cy="88.785" r="6.215"/><circle cx="285.538" cy="88.785" r="6.215"/><circle cx="341.47" cy="88.785" r="6.215"/><circle cx="24.179" cy="215.215" r="6.215"/><circle cx="80.112" cy="215.215" r="6.215"/><circle cx="42.823" cy="215.215" r="6.215"/><circle cx="98.756" cy="215.215" r="6.215"/><circle cx="61.467" cy="215.215" r="6.215"/><circle cx="117.4" cy="215.215" r="6.215"/><circle cx="24.179" cy="232.729" r="6.215"/><circle cx="80.112" cy="232.729" r="6.215"/><circle cx="42.823" cy="232.729" r="6.215"/><circle cx="98.756" cy="232.729" r="6.215"/><circle cx="61.467" cy="232.729" r="6.215"/><circle cx="117.4" cy="232.729" r="6.215"/><circle cx="24.179" cy="250.243" r="6.215"/><circle cx="80.112" cy="250.243" r="6.215"/><circle cx="42.823" cy="250.243" r="6.215"/><circle cx="98.756" cy="250.243" r="6.215"/><circle cx="61.467" cy="250.243" r="6.215"/><circle cx="117.4" cy="250.243" r="6.215"/><circle cx="24.179" cy="267.757" r="6.215"/><circle cx="80.112" cy="267.757" r="6.215"/><circle cx="42.823" cy="267.757" r="6.215"/><circle cx="98.756" cy="267.757" r="6.215"/><circle cx="61.467" cy="267.757" r="6.215"/><circle cx="117.4" cy="267.757" r="6.215"/><circle cx="24.179" cy="285.271" r="6.215"/><circle cx="80.112" cy="285.271" r="6.215"/><circle cx="42.823" cy="285.271" r="6.215"/><circle cx="98.756" cy="285.271" r="6.215"/><circle cx="61.467" cy="285.271" r="6.215"/><circle cx="117.4" cy="285.271" r="6.215"/><circle cx="24.179" cy="302.785" r="6.215"/><circle cx="80.112" cy="302.785" r="6.215"/><circle cx="42.823" cy="302.785" r="6.215"/><circle cx="98.756" cy="302.785" r="6.215"/><circle cx="61.467" cy="302.785" r="6.215"/><circle cx="117.4" cy="302.785" r="6.215"/><circle cx="248.215" cy="215.215" r="6.215"/><circle cx="304.147" cy="215.215" r="6.215"/><circle cx="266.859" cy="215.215" r="6.215"/><circle cx="322.791" cy="215.215" r="6.215"/><circle cx="285.503" cy="215.215" r="6.215"/><circle cx="341.435" cy="215.215" r="6.215"/><circle cx="248.215" cy="232.729" r="6.215"/><circle cx="304.147" cy="232.729" r="6.215"/><circle cx="266.859" cy="232.729" r="6.215"/><circle cx="322.791" cy="232.729" r="6.215"/><circle cx="285.503" cy="232.729" r="6.215"/><circle cx="341.435" cy="232.729" r="6.215"/><circle cx="248.215" cy="250.243" r="6.215"/><circle cx="304.147" cy="250.243" r="6.215"/><circle cx="266.859" cy="250.243" r="6.215"/><circle cx="322.791" cy="250.243" r="6.215"/><circle cx="285.503" cy="250.243" r="6.215"/><circle cx="341.435" cy="250.243" r="6.215"/><circle cx="248.215" cy="267.757" r="6.215"/><circle cx="304.147" cy="267.757" r="6.215"/><circle cx="266.859" cy="267.757" r="6.215"/><circle cx="322.791" cy="267.757" r="6.215"/><circle cx="285.503" cy="267.757" r="6.215"/><circle cx="341.435" cy="267.757" r="6.215"/><circle cx="248.215" cy="285.271" r="6.215"/><circle cx="304.147" cy="285.271" r="6.215"/><circle cx="266.859" cy="285.271" r="6.215"/><circle cx="322.791" cy="285.271" r="6.215"/><circle cx="285.503" cy="285.271" r="6.215"/><circle cx="341.435" cy="285.271" r="6.215"/><circle cx="248.215" cy="302.785" r="6.215"/><circle cx="304.147" cy="302.785" r="6.215"/><circle cx="266.859" cy="302.785" r="6.215"/><circle cx="322.791" cy="302.785" r="6.215"/><circle cx="285.503" cy="302.785" r="6.215"/><circle cx="341.435" cy="302.785" r="6.215"/><circle cx="136.215" cy="1.215" r="6.215"/><circle cx="192.147" cy="1.215" r="6.215"/><circle cx="154.859" cy="1.215" r="6.215"/><circle cx="210.791" cy="1.215" r="6.215"/><circle cx="173.503" cy="1.215" r="6.215"/><circle cx="229.435" cy="1.215" r="6.215"/><circle cx="136.215" cy="18.729" r="6.215"/><circle cx="192.147" cy="18.729" r="6.215"/><circle cx="154.859" cy="18.729" r="6.215"/><circle cx="210.791" cy="18.729" r="6.215"/><circle cx="173.503" cy="18.729" r="6.215"/><circle cx="229.435" cy="18.729" r="6.215"/><circle cx="136.215" cy="36.243" r="6.215"/><circle cx="192.147" cy="36.243" r="6.215"/><circle cx="154.859" cy="36.243" r="6.215"/><circle cx="210.791" cy="36.243" r="6.215"/><circle cx="173.503" cy="36.243" r="6.215"/><circle cx="229.435" cy="36.243" r="6.215"/><circle cx="136.215" cy="53.757" r="6.215"/><circle cx="192.147" cy="53.757" r="6.215"/><circle cx="154.859" cy="53.757" r="6.215"/><circle cx="210.791" cy="53.757" r="6.215"/><circle cx="173.503" cy="53.757" r="6.215"/><circle cx="229.435" cy="53.757" r="6.215"/><circle cx="136.215" cy="71.271" r="6.215"/><circle cx="192.147" cy="71.271" r="6.215"/><circle cx="154.859" cy="71.271" r="6.215"/><circle cx="210.791" cy="71.271" r="6.215"/><circle cx="173.503" cy="71.271" r="6.215"/><circle cx="229.435" cy="71.271" r="6.215"/><circle cx="136.215" cy="88.785" r="6.215"/><circle cx="192.147" cy="88.785" r="6.215"/><circle cx="154.859" cy="88.785" r="6.215"/><circle cx="210.791" cy="88.785" r="6.215"/><circle cx="173.503" cy="88.785" r="6.215"/><circle cx="229.435" cy="88.785" r="6.215"/><circle cx="360.25" cy="1.215" r="6.215"/><circle cx="416.182" cy="1.215" r="6.215"/><circle cx="378.894" cy="1.215" r="6.215"/><circle cx="397.538" cy="1.215" r="6.215"/><circle cx="360.25" cy="18.729" r="6.215"/><circle cx="416.182" cy="18.729" r="6.215"/><circle cx="378.894" cy="18.729" r="6.215"/><circle cx="397.538" cy="18.729" r="6.215"/><circle cx="360.25" cy="36.243" r="6.215"/><circle cx="416.182" cy="36.243" r="6.215"/><circle cx="378.894" cy="36.243" r="6.215"/><circle cx="397.538" cy="36.243" r="6.215"/><circle cx="360.25" cy="53.757" r="6.215"/><circle cx="416.182" cy="53.757" r="6.215"/><circle cx="378.894" cy="53.757" r="6.215"/><circle cx="397.538" cy="53.757" r="6.215"/><circle cx="360.25" cy="71.271" r="6.215"/><circle cx="416.182" cy="71.271" r="6.215"/><circle cx="378.894" cy="71.271" r="6.215"/><circle cx="397.538" cy="71.271" r="6.215"/><circle cx="360.25" cy="88.785" r="6.215"/><circle cx="416.182" cy="88.785" r="6.215"/><circle cx="378.894" cy="88.785" r="6.215"/><circle cx="397.538" cy="88.785" r="6.215"/><circle cx="136.179" cy="215.215" r="6.215"/><circle cx="192.111" cy="215.215" r="6.215"/><circle cx="154.823" cy="215.215" r="6.215"/><circle cx="210.756" cy="215.215" r="6.215"/><circle cx="173.467" cy="215.215" r="6.215"/><circle cx="229.4" cy="215.215" r="6.215"/><circle cx="136.179" cy="232.729" r="6.215"/><circle cx="192.111" cy="232.729" r="6.215"/><circle cx="154.823" cy="232.729" r="6.215"/><circle cx="210.756" cy="232.729" r="6.215"/><circle cx="173.467" cy="232.729" r="6.215"/><circle cx="229.4" cy="232.729" r="6.215"/><circle cx="136.179" cy="250.243" r="6.215"/><circle cx="192.111" cy="250.243" r="6.215"/><circle cx="154.823" cy="250.243" r="6.215"/><circle cx="210.756" cy="250.243" r="6.215"/><circle cx="173.467" cy="250.243" r="6.215"/><circle cx="229.4" cy="250.243" r="6.215"/><circle cx="136.179" cy="267.757" r="6.215"/><circle cx="192.111" cy="267.757" r="6.215"/><circle cx="154.823" cy="267.757" r="6.215"/><circle cx="210.756" cy="267.757" r="6.215"/><circle cx="173.467" cy="267.757" r="6.215"/><circle cx="229.4" cy="267.757" r="6.215"/><circle cx="136.179" cy="285.271" r="6.215"/><circle cx="192.111" cy="285.271" r="6.215"/><circle cx="154.823" cy="285.271" r="6.215"/><circle cx="210.756" cy="285.271" r="6.215"/><circle cx="173.467" cy="285.271" r="6.215"/><circle cx="229.4" cy="285.271" r="6.215"/><circle cx="136.179" cy="302.785" r="6.215"/><circle cx="192.111" cy="302.785" r="6.215"/><circle cx="154.823" cy="302.785" r="6.215"/><circle cx="210.756" cy="302.785" r="6.215"/><circle cx="173.467" cy="302.785" r="6.215"/><circle cx="229.4" cy="302.785" r="6.215"/><circle cx="360.215" cy="215.215" r="6.215"/><circle cx="416.147" cy="215.215" r="6.215"/><circle cx="378.859" cy="215.215" r="6.215"/><circle cx="397.503" cy="215.215" r="6.215"/><circle cx="360.215" cy="232.729" r="6.215"/><circle cx="416.147" cy="232.729" r="6.215"/><circle cx="378.859" cy="232.729" r="6.215"/><circle cx="397.503" cy="232.729" r="6.215"/><circle cx="360.215" cy="250.243" r="6.215"/><circle cx="416.147" cy="250.243" r="6.215"/><circle cx="378.859" cy="250.243" r="6.215"/><circle cx="397.503" cy="250.243" r="6.215"/><circle cx="360.215" cy="267.757" r="6.215"/><circle cx="416.147" cy="267.757" r="6.215"/><circle cx="378.859" cy="267.757" r="6.215"/><circle cx="397.503" cy="267.757" r="6.215"/><circle cx="360.215" cy="285.271" r="6.215"/><circle cx="416.147" cy="285.271" r="6.215"/><circle cx="378.859" cy="285.271" r="6.215"/><circle cx="397.503" cy="285.271" r="6.215"/><circle cx="360.215" cy="302.785" r="6.215"/><circle cx="416.147" cy="302.785" r="6.215"/><circle cx="378.859" cy="302.785" r="6.215"/><circle cx="397.503" cy="302.785" r="6.215"/><circle cx="5.47" cy="1.482" r="6.215"/><circle cx="5.47" cy="18.996" r="6.215"/><circle cx="5.47" cy="36.51" r="6.215"/><circle cx="5.47" cy="54.024" r="6.215"/><circle cx="5.47" cy="71.538" r="6.215"/><circle cx="5.47" cy="89.052" r="6.215"/><circle cx="5.435" cy="215.482" r="6.215"/><circle cx="5.435" cy="232.996" r="6.215"/><circle cx="5.435" cy="250.51" r="6.215"/><circle cx="5.435" cy="268.024" r="6.215"/><circle cx="5.435" cy="285.538" r="6.215"/><circle cx="5.435" cy="303.052" r="6.215"/></g></svg><svg fill="none" viewBox="0 0 51 52" id="cms" xmlns="http://www.w3.org/2000/svg"><path d="M44.625 39v-6.5c0-.474-.158-.863-.473-1.168a1.559 1.559 0 00-1.12-.457H38.35a17.033 17.033 0 00-.997-1.676l2.291-4.062c.2-.373.25-.779.15-1.219-.1-.44-.349-.779-.747-1.016l-8.168-4.875a1.62 1.62 0 00-1.22-.127 1.642 1.642 0 00-.971.737L26.396 22.8c-.067 0-.2-.009-.399-.026a5.918 5.918 0 00-.473-.025c-.116 0-.282.009-.498.025a7.042 7.042 0 01-.424.026l-2.29-4.164a1.642 1.642 0 00-.972-.737 1.62 1.62 0 00-1.22.127l-8.168 4.875a1.535 1.535 0 00-.747 1.016c-.1.44-.05.846.15 1.219l2.29 4.062c-.365.542-.68 1.1-.946 1.676H7.97c-.432 0-.805.152-1.12.457-.316.305-.474.694-.474 1.168V39c-1.76 0-3.262-.635-4.507-1.904C.623 35.826 0 34.294 0 32.5V13c0-.914.307-1.684.921-2.31.615-.627 1.37-.94 2.266-.94h23.907l2.29-4.316c.233-.61.698-1.126 1.395-1.55.698-.422 1.428-.634 2.192-.634h11.953c.797 0 1.544.212 2.241.635.697.423 1.162.94 1.395 1.549L51 9.75V32.5c0 1.794-.623 3.326-1.868 4.596S46.385 39 44.625 39zM2.291 2.184c.232-.61.697-1.126 1.395-1.55C4.383.213 5.113 0 5.877 0H17.83c.797 0 1.544.212 2.241.635.698.423 1.179.94 1.445 1.549l2.39 4.316H0l2.291-4.316zm8.865 31.941h5.38a9.45 9.45 0 011.892-3.25l-2.291-4.215a1.442 1.442 0 01-.175-1.193c.117-.423.357-.753.723-.99l2.59-1.575a1.43 1.43 0 011.145-.127c.398.119.697.364.896.737l2.391 4.265a11.982 11.982 0 011.793-.152c.564 0 1.162.05 1.793.152l2.39-4.265c.2-.373.499-.618.897-.737a1.43 1.43 0 011.146.127l2.64 1.575c.331.236.555.567.672.99.116.423.074.82-.125 1.193l-2.34 4.215a9.45 9.45 0 011.892 3.25h5.379c.431 0 .805.152 1.12.457.316.305.474.694.474 1.168V39c0 .44-.158.821-.474 1.143a1.517 1.517 0 01-1.12.482h-5.38c-.398 1.151-1.029 2.217-1.892 3.2l2.341 4.214c.2.406.24.813.125 1.219-.117.406-.34.728-.673.965l-2.64 1.574a1.51 1.51 0 01-1.145.152c-.398-.101-.697-.355-.896-.761l-2.391-4.266c-.63.135-1.22.203-1.768.203a9.165 9.165 0 01-1.818-.203l-2.39 4.266c-.2.406-.499.66-.897.761a1.51 1.51 0 01-1.146-.152l-2.59-1.574a1.666 1.666 0 01-.722-.965c-.116-.406-.058-.813.175-1.219l2.29-4.215c-.863-.982-1.493-2.048-1.892-3.199h-5.379c-.431 0-.805-.16-1.12-.482A1.577 1.577 0 019.563 39v-3.25c0-.474.157-.863.473-1.168a1.559 1.559 0 011.12-.457zm14.369 6.5c.88 0 1.627-.322 2.241-.965a3.228 3.228 0 00.922-2.31c0-.898-.308-1.66-.922-2.285a3.021 3.021 0 00-2.241-.94c-.88 0-1.635.313-2.266.94-.631.626-.947 1.388-.947 2.285 0 .897.316 1.667.947 2.31.63.643 1.386.965 2.266.965z" fill="#fff"/></svg><svg fill="none" viewBox="0 0 39 39" id="design" xmlns="http://www.w3.org/2000/svg"><path fill-rule="evenodd" clip-rule="evenodd" d="M2.146 2.255A7.648 7.648 0 017.583 0c2.088 0 4.038.84 5.438 2.255a7.393 7.393 0 012.146 5.2v4.59h8.666v-4.59c0-1.918.753-3.792 2.146-5.2A7.648 7.648 0 0131.417 0c2.088 0 4.037.84 5.437 2.255A7.393 7.393 0 0139 7.455c0 1.92-.752 3.794-2.146 5.202a7.648 7.648 0 01-5.437 2.255h-4.334v9.176h4.334c2.088 0 4.037.84 5.437 2.255A7.393 7.393 0 0139 31.544c0 1.92-.752 3.793-2.146 5.201A7.648 7.648 0 0131.417 39a7.648 7.648 0 01-5.438-2.255 7.393 7.393 0 01-2.146-5.2v-4.59h-8.666v4.59c0 1.918-.753 3.792-2.146 5.2A7.648 7.648 0 017.583 39a7.647 7.647 0 01-5.437-2.255A7.393 7.393 0 010 31.545c0-1.92.752-3.794 2.146-5.202a7.648 7.648 0 015.437-2.255h4.334v-9.176H7.583a7.648 7.648 0 01-5.437-2.255A7.393 7.393 0 010 7.456c0-1.92.752-3.793 2.146-5.201zm9.77 9.79v-4.59a4.717 4.717 0 00-1.344-3.314 4.207 4.207 0 00-2.989-1.273A4.207 4.207 0 004.594 4.14 4.717 4.717 0 003.25 7.456c0 1.275.503 2.465 1.344 3.315a4.207 4.207 0 002.99 1.273h4.333zm3.25 2.867v9.176h8.667v-9.176h-8.666zm-3.25 12.044H7.584a4.207 4.207 0 00-2.989 1.273 4.717 4.717 0 00-1.344 3.315c0 1.275.503 2.465 1.344 3.315a4.207 4.207 0 002.99 1.273 4.207 4.207 0 002.988-1.273 4.717 4.717 0 001.345-3.315v-4.588zm15.167 0v4.588c0 1.275.503 2.465 1.345 3.315a4.207 4.207 0 002.989 1.273 4.206 4.206 0 002.989-1.273 4.717 4.717 0 001.344-3.315 4.717 4.717 0 00-1.344-3.315 4.207 4.207 0 00-2.99-1.273h-4.333zm0-14.912h4.334a4.207 4.207 0 002.989-1.273 4.717 4.717 0 001.344-3.315 4.717 4.717 0 00-1.344-3.315 4.207 4.207 0 00-2.99-1.273 4.207 4.207 0 00-2.988 1.273 4.717 4.717 0 00-1.345 3.315v4.588z" fill="#fff"/></svg><svg fill="none" viewBox="0 0 137 298" id="figure_1" xmlns="http://www.w3.org/2000/svg"><path fill-rule="evenodd" clip-rule="evenodd" d="M136.383.082C60.222 6.751.483 70.69.483 148.582s59.739 141.831 135.9 148.5v-297z" fill="#C0E6E9" fill-opacity=".14"/></svg><svg fill="none" viewBox="0 0 51 47" id="frontend" xmlns="http://www.w3.org/2000/svg"><path d="M13.707 35.809l3.187-4.077-10.26-8.402 10.26-8.402-3.187-4.077-12.75 10.44c-.298.245-.54.555-.705.908a2.661 2.661 0 000 2.262c.166.353.407.663.705.907l12.75 10.44zM37.293 10.85l-3.187 4.077 10.26 8.402-10.26 8.402 3.187 4.077 12.75-10.44c.298-.245.54-.555.705-.908a2.662 2.662 0 000-2.262 2.601 2.601 0 00-.705-.908l-12.75-10.44zM32.553 1.099l-9.478 45.56-4.628-1.098L27.925 0l4.628 1.099z" fill="#fff"/></svg><svg fill="none" viewBox="0 0 16 16" id="telegram" xmlns="http://www.w3.org/2000/svg"><path d="M8 0a8 8 0 100 16A8 8 0 008 0z" fill="#40B3E0"/><path d="M11.893 4.602l-1.43 7.204s-.199.5-.749.26L6.417 9.538l-1.199-.58L3.2 8.28s-.31-.11-.34-.35c-.03-.24.35-.37.35-.37l8.023-3.147s.66-.29.66.19" fill="#fff"/><path d="M6.164 11.725s-.097-.009-.217-.389-.729-2.378-.729-2.378l4.846-3.077s.28-.17.27 0c0 0 .05.03-.1.17-.15.14-3.807 3.427-3.807 3.427" fill="#D2E5F1"/><path d="M7.681 10.507l-1.304 1.19s-.102.077-.213.028l.25-2.209" fill="#B5CFE4"/></svg><svg fill="none" viewBox="0 0 21 18" id="telegram_black" xmlns="http://www.w3.org/2000/svg"><path d="M19.582.113L.982 7.114c-1.27.498-1.263 1.19-.233 1.498l4.776 1.454 11.05-6.805c.522-.31 1-.143.607.197l-8.953 7.886h-.002.002l-.33 4.806c.483 0 .696-.217.967-.472l2.32-2.201 4.825 3.478c.89.479 1.529.233 1.75-.803l3.168-14.57c.324-1.27-.497-1.844-1.346-1.469z" fill="#000"/></svg><svg fill="none" viewBox="0 0 19 20" id="viber_black" xmlns="http://www.w3.org/2000/svg"><path d="M9 .003C7.393.02 3.94.273 2.008 1.964.57 3.323.069 5.332.01 7.815c-.049 2.475-.107 7.123 4.588 8.389v1.927s-.03.771.505.93c.658.198 1.032-.395 1.658-1.032l1.167-1.26c3.212.255 5.673-.332 5.956-.42.652-.198 4.323-.646 4.923-5.294.616-4.8-.3-7.825-1.951-9.193h-.01c-.5-.439-2.503-1.832-6.98-1.847 0 0-.332-.022-.866-.013zm.055 1.35c.456-.004.733.015.733.015 3.79.01 5.598 1.098 6.025 1.464 1.39 1.138 2.108 3.865 1.583 7.873-.499 3.886-3.476 4.132-4.028 4.3-.234.071-2.401.58-5.131.413 0 0-2.033 2.341-2.67 2.944-.1.106-.217.137-.292.121-.108-.025-.14-.152-.134-.326l.02-3.2c-3.983-1.05-3.748-5.014-3.706-7.085.05-2.07.456-3.765 1.669-4.912 1.632-1.408 4.565-1.598 5.93-1.608h.001zm.3 2.07a.259.259 0 00-.177.068.237.237 0 00-.074.168c0 .134.114.24.251.24a4.9 4.9 0 011.814.311 4.73 4.73 0 011.549.954c.909.842 1.352 1.974 1.369 3.454 0 .13.11.24.25.24v-.01c.066 0 .13-.025.177-.07a.233.233 0 00.074-.167 4.93 4.93 0 00-.348-2.043 5.118 5.118 0 00-1.164-1.747c-.99-.923-2.245-1.399-3.72-1.399zm-3.297.547a.815.815 0 00-.512.096h-.013c-.358.2-.68.453-.955.75-.228.251-.352.506-.384.751A.972.972 0 004.233 6l.016.01c.257.72.593 1.414 1.004 2.067A12.21 12.21 0 007.188 10.6l.023.031.035.026.023.025.026.021c.798.724 1.69 1.348 2.653 1.856 1.1.572 1.769.842 2.17.954v.006c.117.034.224.05.332.05.342-.024.665-.156.92-.376a3.66 3.66 0 00.775-.914v-.006c.192-.345.127-.672-.15-.892a11.56 11.56 0 00-1.793-1.228c-.426-.221-.86-.088-1.036.136l-.374.451c-.192.224-.541.193-.541.193l-.01.006c-2.604-.635-3.298-3.15-3.298-3.15s-.033-.342.208-.516l.47-.36c.224-.175.38-.588.14-.996a10.765 10.765 0 00-1.284-1.71.72.72 0 00-.42-.24v.002zm3.73.71c-.332 0-.332.478.003.478.413.006.821.09 1.2.247.38.157.722.383 1.01.667.261.276.463.599.591.95.13.352.183.724.158 1.096a.236.236 0 00.075.167c.046.044.11.069.176.069l.01.012c.066 0 .13-.025.176-.07a.236.236 0 00.075-.169c.022-.948-.287-1.744-.893-2.382-.61-.637-1.46-.995-2.545-1.066h-.036zm.411 1.286c-.342-.01-.355.479-.016.488.825.041 1.225.439 1.277 1.256a.232.232 0 00.074.165.255.255 0 00.174.069h.01a.262.262 0 00.177-.08.24.24 0 00.064-.175c-.059-1.066-.668-1.667-1.75-1.722h-.01z" fill="#000"/></svg></svg>